<?xml version="1.0" encoding="utf-8"?>
<!-- Generator: Adobe Illustrator 19.2.0, SVG Export Plug-In . SVG Version: 6.00 Build 0)  -->
<svg version="1.1" id="Layer_1" xmlns="http://www.w3.org/2000/svg" xmlns:xlink="http://www.w3.org/1999/xlink" x="0px" y="0px"
	 viewBox="0 0 95.6 75.3" style="enable-background:new 0 0 95.6 75.3;" xml:space="preserve">
<style type="text/css">
	.st0{fill:url(#tag_1_);}
</style>
<title>Share page - category tag</title>
<g id="Page-1">
	<g id="noun_925340_cc">
		
			<linearGradient id="tag_1_" gradientUnits="userSpaceOnUse" x1="-32.9542" y1="1.9349" x2="-32.6342" y2="0.8849" gradientTransform="matrix(27.63 -49.85 81.16 44.99 841.6597 -1661.0204)">
			<stop  offset="0" style="stop-color:#F7861D"/>
			<stop  offset="1" style="stop-color:#F76B1C"/>
		</linearGradient>
		<path id="tag" class="st0" d="M38,0.2c-0.2,0-0.3,0.1-0.5,0.2l-6.8,3.7c-0.6,0-1.2,0.1-1.9,0.2l-25,7.8C1.1,13-0.5,16,0.2,18.8
			l6.6,25.4c0.4,1.5,1.3,2.7,2.7,3.4l48.8,27c2.7,1.4,6,0.5,7.5-2.1l0.7-1.3l2.2,1.2c2.7,1.4,6,0.5,7.5-2.1L95,36.1
			c1.4-2.7,0.5-6-2.1-7.5l-50.5-28C41-0.1,39.5-0.2,38,0.2z M15.7,22.5c1.1-1.9,3.5-2.6,5.4-1.6c1.9,1.1,2.6,3.5,1.6,5.4
			c-1.1,1.9-3.5,2.6-5.4,1.6C15.4,26.9,14.7,24.5,15.7,22.5C15.7,22.5,15.7,22.5,15.7,22.5z M90.4,33c0.2,0.1,0.3,0.4,0.2,0.6
			c0,0,0,0,0,0.1L71.7,67.8c-0.1,0.2-0.4,0.3-0.6,0.2c0,0,0,0-0.1,0l-2.2-1.3l15.3-27.5c1.5-2.7,0.5-6-2.2-7.5L36.6,6.7l3.1-1.6
			c0.1,0,0.2,0,0.3,0.1L90.4,33z"/>
	</g>
</g>
</svg>
