<?xml version="1.0" encoding="utf-8"?>
<!-- Generator: Adobe Illustrator 19.2.0, SVG Export Plug-In . SVG Version: 6.00 Build 0)  -->
<svg version="1.1" id="Layer_1" xmlns="http://www.w3.org/2000/svg" xmlns:xlink="http://www.w3.org/1999/xlink" x="0px" y="0px"
	 viewBox="0 0 229 214" style="enable-background:new 0 0 229 214;" xml:space="preserve">
<style type="text/css">
	.st0{fill:#4275CD;}
</style>
<title>comments</title>
<desc>Created with Sketch.</desc>
<g id="Page-1">
	<g id="noun_1165599_cc">
		<path id="comments" class="st0" d="M199,0.3H30.2C13.9,0.3,0.6,13.6,0.6,29.9v98.5c0,16.3,13.3,29.6,29.6,29.6h68.6v43.6
			c0,4.6,1.7,8.8,5.8,10.7c4.2,1.9,8.1,1.2,11.6-1.9l62.7-52.5h20c16.4,0,29.6-13.2,29.6-29.6V29.9C228.6,13.6,215.4,0.3,199,0.3z
			 M220.6,129.9c0,10.2-8.3,18.4-18.4,18.4h-23c-1.5,0-2.9,0.5-4,1.4l-66.7,56.1v-51.4c0-3.4-2.8-6.1-6.1-6.1H27.1
			c-10.2,0-18.4-8.3-18.4-18.4V27.7c0-10.2,8.3-18.4,18.4-18.4h175.1c10.2,0,18.4,8.3,18.4,18.4V129.9z"/>
	</g>
</g>
</svg>
