<?xml version="1.0" encoding="utf-8"?>
<!-- Generator: Adobe Illustrator 19.2.0, SVG Export Plug-In . SVG Version: 6.00 Build 0)  -->
<svg version="1.1" id="Layer_1" xmlns="http://www.w3.org/2000/svg" xmlns:xlink="http://www.w3.org/1999/xlink" x="0px" y="0px"
	 viewBox="0 0 60 75" style="enable-background:new 0 0 60 75;" xml:space="preserve">
<style type="text/css">
	.st0{fill:#919191;}
	.st1{fill:none;stroke:#919191;stroke-width:3;stroke-miterlimit:10;}
</style>
<path class="st0" d="M59,20.8l-18.9-8.3c0,0,0,0-0.1,0s-0.1,0-0.2-0.1c-0.1,0-0.1,0-0.2,0c-0.1,0-0.1,0-0.2,0c-0.1,0-0.1,0-0.2,0
	c-0.1,0-0.1,0-0.2,0s-0.1,0-0.2,0.1c0,0,0,0-0.1,0l-6.3,2.8c0.1,0.5,0.1,1,0.1,1.5v0.6c0,0.5,0,1.1-0.1,1.6l5.3-2.4v43.5L22.3,67
	c0,0.1,0-17.8,0-30.6c0,1.2-0.6,2.1-1.3,2.2c-0.8,0.1-1.9-0.8-2-2.5l-0.2-0.3c0,0,0,0,0,0V67L3.4,60.3V16.7l5.9,2.6
	c-0.1-0.6-0.2-1.2-0.2-1.8v-1c0-0.3,0-0.6,0.1-0.9l-6.9-3c-0.5-0.2-1.1-0.2-1.6,0.1C0.3,13,0,13.5,0,14.1v47.3c0,0.7,0.4,1.3,1,1.6
	l18.8,8.3c0.1,0,0.2,0.1,0.3,0.1h0.1c0.1,0,0.2,0,0.3,0s0.2,0,0.3,0h0.1c0.1,0,0.2,0,0.3-0.1l18.2-8l18.2,8c0.2,0.1,0.5,0.1,0.7,0.1
	c0.3,0,0.7-0.1,0.9-0.3c0.5-0.3,0.8-0.9,0.8-1.4V22.4C60,21.7,59.6,21.1,59,20.8z M56.6,67.1l-15.4-6.8V16.7l15.4,6.8V67.1z"/>
<circle class="st1" cx="20.8" cy="16.4" r="5.1"/>
<path class="st0" d="M20.9,40.8c-0.7,0-1.6-0.1-2.2-0.7L18.6,40c0,0-0.1-0.1-0.1-0.1C13.8,35,6.1,25.8,6.1,17.3v-1.2
	C6.3,8,12.9,1.5,20.8,1.5c8.1,0,14.7,6.7,14.7,15v0.8c0,9.6-11.4,21.7-12.4,22.8c-0.5,0.5-1.1,0.7-1.6,0.7
	C21.4,40.8,21.1,40.8,20.9,40.8z M20.7,37.8c0.1,0,0.3,0,0.5,0c1.6-1.7,11.4-12.5,11.4-20.5v-0.8c0-6.6-5.2-12-11.7-12
	c-6.3,0-11.5,5.2-11.7,11.6l0,1.2C9.1,22.7,13.3,30.2,20.7,37.8C20.6,37.8,20.6,37.8,20.7,37.8z M20.5,37.8L20.5,37.8L20.5,37.8z"/>
</svg>
