<?xml version="1.0" encoding="utf-8"?>
<!-- Generator: Adobe Illustrator 19.2.0, SVG Export Plug-In . SVG Version: 6.00 Build 0)  -->
<svg version="1.1" id="Layer_1" xmlns="http://www.w3.org/2000/svg" xmlns:xlink="http://www.w3.org/1999/xlink" x="0px" y="0px"
	 viewBox="0 0 60 75" style="enable-background:new 0 0 60 75;" xml:space="preserve">
<style type="text/css">
	.st0{fill:#FFFFFF;stroke:#000000;stroke-width:3;stroke-miterlimit:10;}
</style>
<path d="M59,20.8l-18.9-8.3c0,0,0,0-0.1,0c-0.1,0-0.1,0-0.2-0.1c-0.1,0-0.1,0-0.2,0c-0.1,0-0.1,0-0.2,0c-0.1,0-0.1,0-0.2,0
	c-0.1,0-0.1,0-0.2,0c-0.1,0-0.1,0-0.2,0.1c0,0,0,0-0.1,0l-18.2,8l-18.2-8c-0.5-0.2-1.1-0.2-1.6,0.1C0.3,13,0,13.5,0,14.1v47.3
	c0,0.7,0.4,1.3,1,1.6l18.8,8.3c0,0,0,0,0,0l0,0c0,0,0,0,0,0c0.1,0,0.2,0.1,0.3,0.1c0,0,0.1,0,0.1,0c0.1,0,0.2,0,0.3,0
	c0.1,0,0.2,0,0.3,0c0,0,0.1,0,0.1,0c0.1,0,0.2,0,0.3-0.1c0,0,0,0,0,0l18.2-8l18.2,8c0.2,0.1,0.5,0.1,0.7,0.1c0.3,0,0.7-0.1,0.9-0.3
	c0.5-0.3,0.8-0.9,0.8-1.4V22.4C60,21.7,59.6,21.1,59,20.8z M3.4,16.7l15.4,6.8v43.5L3.4,60.3C3.4,60.3,3.4,16.7,3.4,16.7z
	 M22.3,23.5l15.4-6.8v43.5l-15.4,6.8C22.3,67.1,22.3,23.5,22.3,23.5z M56.6,67.1l-15.4-6.8V16.7l15.4,6.8
	C56.6,23.5,56.6,67.1,56.6,67.1z"/>
<g>
	<path class="st0" d="M34,16.5C34,9.1,28.1,3,20.8,3c-7.1,0-13,5.8-13.2,13.1h0c0,0.4,0,0.8,0,1.2c0,10,12.1,21.6,12.2,21.8
		c0.3,0.3,2,0.3,2.2,0c0.3-0.3,12-12.6,12-21.8c0-0.2,0-0.3,0-0.5C34,16.7,34,16.6,34,16.5z"/>
</g>
<circle class="st0" cx="20.8" cy="16.4" r="5.1"/>
</svg>
