<?xml version="1.0" encoding="utf-8"?>
<!-- Generator: Adobe Illustrator 19.2.0, SVG Export Plug-In . SVG Version: 6.00 Build 0)  -->
<svg version="1.1" id="Layer_1" xmlns="http://www.w3.org/2000/svg" xmlns:xlink="http://www.w3.org/1999/xlink" x="0px" y="0px"
	 viewBox="0 0 200 200" style="enable-background:new 0 0 200 200;" xml:space="preserve">
<style type="text/css">
	.st0{fill:#494949;}
</style>
<path class="st0" d="M207,21H-7c-4.4,0-8-4.2-8-9.3V9.3C-15,4.2-11.4,0-7,0h214c4.4,0,8,4.2,8,9.3v2.3C215,16.8,211.4,21,207,21z"/>
<path class="st0" d="M207,111.1H-7c-4.4,0-8-4.2-8-9.3v-2.3c0-5.1,3.6-9.3,8-9.3h214c4.4,0,8,4.2,8,9.3v2.3
	C215,106.9,211.4,111.1,207,111.1z"/>
<path class="st0" d="M207.1,200h-214c-4.4,0-8-4.2-8-9.3v-2.3c0-5.1,3.6-9.3,8-9.3h214c4.4,0,8,4.2,8,9.3v2.3
	C215.1,195.8,211.5,200,207.1,200z"/>
</svg>
