<?xml version="1.0" encoding="utf-8"?>
<!-- Generator: Adobe Illustrator 19.2.0, SVG Export Plug-In . SVG Version: 6.00 Build 0)  -->
<svg version="1.1" id="bell" xmlns="http://www.w3.org/2000/svg" xmlns:xlink="http://www.w3.org/1999/xlink" x="0px" y="0px"
	 viewBox="0 0 631.4 657.7" style="enable-background:new 0 0 631.4 657.7;" xml:space="preserve">
<style type="text/css">
	.st0{fill:#494949;}
</style>
<g>
	<path class="st0" d="M315.7,663.7c-23.2,0-44.7-8.7-60.5-24.4c-14.4-14.4-22.9-33.6-24.2-54.5H-9l81.9-196.6V236.8
		c0-65.2,25.1-126.3,70.8-172S250.4-6,315.7-6s126.3,25.1,172,70.8s70.8,106.7,70.8,172v151.4l81.9,196.6h-240
		c-1.4,20.9-9.9,40.1-24.2,54.5C360.4,655,338.9,663.7,315.7,663.7z M269.5,584.8c3,22.9,22.6,40.6,46.2,40.6
		c23.7,0,43.3-17.7,46.2-40.6H269.5z M583,546.5l-59.8-144.1l-0.9-1.8H108.9l-0.9,1.8L48.5,546.5H583z M520.2,362.3V236.8
		c0-54.4-21.3-105.7-60.1-144.4s-90-60.1-144.4-60.1S210,53.6,171.3,92.4c-38.7,38.7-60.1,90-60.1,144.4v125.5H520.2z"/>
	<path class="st0" d="M315.7,0c131.6,0,236.8,105.2,236.8,236.8v152.6l78.9,189.4h-78.9H394.6c0,44.7-34.2,78.9-78.9,78.9
		s-78.9-34.2-78.9-78.9H78.9H0l78.9-189.4V236.8C78.9,105.2,184.1,0,315.7,0 M105.2,368.3h421V236.8c0-115.8-94.7-210.5-210.5-210.5
		S105.2,121,105.2,236.8V368.3 M39.5,552.5h39.4h473.6H592l-63.3-152.6l-2.6-5.3H105.2l-2.6,5.3L39.5,552.5 M315.7,631.4
		c28.9,0,52.6-23.7,52.6-52.6H263.1C263.1,607.7,286.8,631.4,315.7,631.4 M315.7-12c-33.8,0-66.5,6.5-97.2,19.4
		c-29.7,12.5-56.3,30.3-79.1,53.1s-40.7,49.4-53.1,79.1c-12.9,30.7-19.4,63.4-19.4,97.2V387l-78,187.2l-6.9,16.6H0h78.9h146.6
		c2.5,20.2,11.3,38.6,25.5,52.7c16.9,16.9,39.9,26.2,64.7,26.2s47.8-9.3,64.7-26.2c14.1-14.1,23-32.5,25.5-52.7h146.6h78.9h18
		l-6.9-16.6l-78-187.2V236.8c0-33.8-6.5-66.5-19.4-97.2c-12.5-29.7-30.3-56.3-53.1-79.1c-22.8-22.8-49.4-40.7-79.1-53.1
		C382.2-5.5,349.5-12,315.7-12L315.7-12z M117.2,356.3V236.8c0-26.7,5.3-52.6,15.7-77.1c10-23.6,24.4-44.9,42.7-63.1
		C193.8,78.3,215,64,238.6,54c24.5-10.4,50.4-15.7,77.1-15.7s52.6,5.3,77.1,15.7c23.6,10,44.9,24.4,63.1,42.7
		c18.3,18.3,32.6,39.5,42.7,63.1c10.4,24.5,15.7,50.4,15.7,77.1v119.5H117.2V356.3z M112.8,406.6h405.7L574,540.5h-21.5H78.9H57.4
		L112.8,406.6L112.8,406.6z M276.9,590.8h77.6c-1.9,6.2-5.4,11.9-10.1,16.7c-7.7,7.7-17.9,11.9-28.7,11.9s-20.9-4.2-28.7-11.9
		C282.3,602.7,278.9,597,276.9,590.8L276.9,590.8z"/>
</g>
</svg>
