<?xml version="1.0" encoding="utf-8"?>
<!-- Generator: Adobe Illustrator 19.2.0, SVG Export Plug-In . SVG Version: 6.00 Build 0)  -->
<svg version="1.1" id="bell" xmlns="http://www.w3.org/2000/svg" xmlns:xlink="http://www.w3.org/1999/xlink" x="0px" y="0px"
	 viewBox="0 0 631.4 657.7" style="enable-background:new 0 0 631.4 657.7;" xml:space="preserve">
<style type="text/css">
	.st0{fill:#494949;}
</style>
<g>
	<path class="st0" d="M315.7,651.9c-21.9,0-42.3-8.4-57.2-23.5c-13.6-13.9-21.7-32.4-22.9-52.6H8.5L86,386.1V240
		c0-62.9,23.7-121.9,67-165.9S253.9,5.8,315.7,5.8S435.2,30,478.4,74.1s67,102.9,67,165.9v146.1l77.5,189.7H395.8
		c-1.3,20.2-9.4,38.7-22.9,52.6C358,643.5,337.6,651.9,315.7,651.9z M272,575.8c2.8,22.1,21.4,39.2,43.7,39.2
		c22.4,0,41-17.1,43.7-39.2H272z M568.6,538.8l-56.6-139l-0.9-1.7H120.1l-0.9,1.7l-56.3,139H568.6z M509.2,361.1V240
		c0-52.5-20.2-102-56.9-139.3s-85.1-58-136.6-58s-100,20.6-136.6,58c-36.6,37.3-56.9,86.8-56.9,139.3v121.1H509.2z"/>
	<path class="st0" d="M315.7,11.6c124.5,0,224,101.5,224,228.5v147.2L614.4,570h-74.6H390.3c0,43.1-32.4,76.1-74.6,76.1
		s-74.6-33-74.6-76.1H91.7H17l74.6-182.7V240C91.7,113.1,191.2,11.6,315.7,11.6 M116.6,366.9h398.3V240
		C514.8,128.3,425.3,37,315.7,37S116.6,128.3,116.6,240V366.9 M54.4,544.6h37.3h448.1h37.4l-59.9-147.2l-2.5-5.1H116.6l-2.5,5.1
		L54.4,544.6 M315.7,620.7c27.3,0,49.8-22.9,49.8-50.7h-99.5C265.9,597.9,288.4,620.7,315.7,620.7 M315.7,0c-32,0-62.9,6.3-92,18.7
		c-28.1,12.1-53.3,29.2-74.8,51.2s-38.5,47.7-50.2,76.3c-12.2,29.6-18.4,61.2-18.4,93.8V385L6.5,565.6l-6.5,16h17h74.6h138.7
		c2.4,19.5,10.7,37.2,24.1,50.8c16,16.3,37.7,25.3,61.2,25.3c23.5,0,45.2-9,61.2-25.3c13.3-13.6,21.8-31.4,24.1-50.8h138.7h74.6h17
		l-6.5-16L551.1,385V240c0-32.6-6.1-64.2-18.4-93.8c-11.8-28.7-28.7-54.3-50.2-76.3s-46.7-39.3-74.8-51.2C378.6,6.3,347.7,0,315.7,0
		L315.7,0z M127.9,355.3V240c0-25.8,5-50.7,14.9-74.4c9.5-22.8,23.1-43.3,40.4-60.9c17.2-17.7,37.3-31.5,59.6-41.1
		c23.2-10,47.7-15.1,72.9-15.1s49.8,5.1,72.9,15.1c22.3,9.6,42.5,23.5,59.7,41.2c17.3,17.7,30.8,38.1,40.4,60.9
		c9.8,23.6,14.9,48.6,14.9,74.4v115.3L127.9,355.3L127.9,355.3z M123.7,403.9h383.8L560.1,533h-20.3H91.7H71.3L123.7,403.9
		L123.7,403.9z M279,581.6h73.4c-1.8,6-5.1,11.5-9.6,16.1c-7.3,7.4-16.9,11.5-27.2,11.5c-10.2,0-19.8-4.1-27.2-11.5
		C284.1,593.1,280.9,587.6,279,581.6L279,581.6z"/>
</g>
</svg>
