<?xml version="1.0" encoding="utf-8"?>
<!-- Generator: Adobe Illustrator 19.2.0, SVG Export Plug-In . SVG Version: 6.00 Build 0)  -->
<svg version="1.1" id="bell" xmlns="http://www.w3.org/2000/svg" xmlns:xlink="http://www.w3.org/1999/xlink" x="0px" y="0px"
	 viewBox="0 0 631.4 657.7" style="enable-background:new 0 0 631.4 657.7;" xml:space="preserve">
<style type="text/css">
	.st0{fill:#919191;}
</style>
<g>
	<path class="st0" d="M315.9,651.9c-22,0-42.3-8.4-57.3-23.5C245,614.5,237,596,235.7,575.8H8.5l77.5-189.7V240
		c0-62.9,23.8-121.9,67-165.9s101-68.3,162.8-68.3S435.5,30,478.8,74.1s67,102.9,67,165.9v146.1l77.5,189.7H396.1
		c-1.3,20.2-9.4,38.7-22.9,52.6C358.3,643.5,337.9,651.9,315.9,651.9z M272.2,575.8c2.8,22.1,21.4,39.2,43.7,39.2
		c22.4,0,41-17.1,43.7-39.2H272.2z M569,538.8l-56.6-139l-0.9-1.7H120.1l-0.9,1.7L63,538.8H569z M509.6,361.1V240
		c0-52.5-20.2-102-56.9-139.3s-85.2-58-136.7-58s-100.1,20.6-136.7,58c-36.6,37.3-56.9,86.8-56.9,139.3v121.1H509.6z"/>
	<path class="st0" d="M315.9,11.6c124.6,0,224.2,101.5,224.2,228.5v147.2L614.8,570h-74.7H390.6c0,43.1-32.4,76.1-74.7,76.1
		s-74.7-33-74.7-76.1H91.7H17l74.7-182.7V240C91.7,113.1,191.3,11.6,315.9,11.6 M116.6,366.9h398.6V240
		C515.2,128.3,425.6,37,315.9,37S116.6,128.3,116.6,240V366.9 M54.4,544.6h37.3h448.4h37.4l-59.9-147.2l-2.5-5.1H116.6l-2.5,5.1
		L54.4,544.6 M315.9,620.7c27.4,0,49.8-22.9,49.8-50.7h-99.6C266.1,597.9,288.6,620.7,315.9,620.7 M315.9,0c-32,0-63,6.3-92,18.7
		C195.8,30.8,170.6,48,149,69.9s-38.5,47.7-50.3,76.3c-12.2,29.6-18.4,61.2-18.4,93.8V385L6.5,565.6l-6.5,16h17h74.7h138.8
		c2.4,19.5,10.7,37.2,24.1,50.8c16,16.3,37.8,25.3,61.3,25.3c23.5,0,45.3-9,61.3-25.3c13.3-13.6,21.8-31.4,24.1-50.8h138.8h74.7h17
		l-6.5-16L551.5,385V240c0-32.6-6.2-64.2-18.4-93.8c-11.8-28.7-28.7-54.3-50.3-76.3c-21.6-22-46.8-39.3-74.9-51.2
		C378.9,6.3,347.9,0,315.9,0L315.9,0z M128,355.3V240c0-25.8,5-50.7,14.9-74.4c9.5-22.8,23.1-43.3,40.4-60.9
		c17.2-17.7,37.3-31.5,59.6-41.1c23.2-10,47.7-15.1,73-15.1c25.3,0,49.8,5.1,73,15.1c22.3,9.6,42.5,23.5,59.7,41.2
		c17.3,17.7,30.9,38.1,40.4,60.9c9.8,23.6,14.9,48.6,14.9,74.4v115.3L128,355.3L128,355.3z M123.8,403.9H508L560.5,533h-20.4H91.7
		H71.4L123.8,403.9L123.8,403.9z M279.2,581.6h73.5c-1.8,6-5.1,11.5-9.6,16.1c-7.3,7.4-16.9,11.5-27.2,11.5
		c-10.2,0-19.8-4.1-27.2-11.5C284.3,593.1,281.1,587.6,279.2,581.6L279.2,581.6z"/>
</g>
</svg>
