<svg id="Layer_1" data-name="Layer 1" xmlns="http://www.w3.org/2000/svg" xmlns:xlink="http://www.w3.org/1999/xlink" viewBox="0 0 54.5 75.86"><defs><style>.cls-1{fill:url(#radial-gradient);}.cls-2{stroke:#454545;stroke-width:0.5px;fill:url(#linear-gradient);}.cls-3{fill:#edc3c3;}</style><radialGradient id="radial-gradient" cx="-98.11" cy="6.39" r="1.13" gradientTransform="translate(-56.84 -318.58) rotate(-90) scale(4 13.24)" gradientUnits="userSpaceOnUse"><stop offset="0" stop-color="#474747"/><stop offset="1" stop-color="#fff"/></radialGradient><linearGradient id="linear-gradient" x1="-71.15" y1="1.8" x2="-71.15" y2="2.8" gradientTransform="translate(3869.25 -128.38) scale(54 72)" gradientUnits="userSpaceOnUse"><stop offset="0" stop-color="#dc6180"/><stop offset="1" stop-color="#bc2727"/></linearGradient></defs><title>Safety gradient</title><g id="Page-1"><g id="Safety-gradient"><g id="list-icon-development-copy"><ellipse id="Oval-3" class="cls-1" cx="27.75" cy="73.86" rx="12.5" ry="2"/><path id="Shape" class="cls-2" d="M0.25,27v2.38c0,19.72,24.65,42.93,25,43.12a4.12,4.12,0,0,0,2.3.5,3.73,3.73,0,0,0,2.2-.5c0.64-.59,24.5-24.89,24.5-43.14V27.78A27,27,0,1,0,.25,27Z" transform="translate(0 -0.14)"/><g id="Group"><path id="Shape-2" class="cls-3" d="M16.14,43L15,46.6H39L37.87,43H16.14Zm3.8,2.9H16l0.78-2.3h5.55C21.5,44.4,20.72,45.2,19.94,45.9Z" transform="translate(0 -0.14)"/><path id="Shape-3" class="cls-3" d="M27.16,21A9.06,9.06,0,0,0,18,30V41H36.51V30a9.06,9.06,0,0,0-9.12-9H27.16Zm7.57,9.14a0.81,0.81,0,0,1-.75.76,0.74,0.74,0,0,1-.73-0.75h0a5.7,5.7,0,0,0-5.78-5.62H27.34a0.74,0.74,0,0,1-.75-0.73s0,0,0,0A0.81,0.81,0,0,1,27.34,23h0.09A7.25,7.25,0,0,1,34.73,30.14Z" transform="translate(0 -0.14)"/><path id="Shape-4" class="cls-3" d="M15.75,26.7a1.55,1.55,0,0,0-1.25-1.8h0L10,24a1.47,1.47,0,0,0-1.74,1.14V25.7A1.7,1.7,0,0,0,9.52,27L14,27.9a1.47,1.47,0,0,0,1.74-1.14V26.7Z" transform="translate(0 -0.14)"/><path id="Shape-5" class="cls-3" d="M14.78,16.4l2.92,3.5a1.43,1.43,0,0,0,2,.32l0.14-.12a1.61,1.61,0,0,0,.29-2.2l-2.88-3.5a1.56,1.56,0,0,0-2.73,1.2A1.15,1.15,0,0,0,14.78,16.4Z" transform="translate(0 -0.14)"/><path id="Shape-6" class="cls-3" d="M25.69,16.5a1.57,1.57,0,0,0,1.46,1.3,1.48,1.48,0,0,0,1.56-1.4s0-.07,0-0.1V11.8a1.7,1.7,0,0,0-1.56-1.6,1.54,1.54,0,0,0-1.56,1.5v4.5A0.37,0.37,0,0,0,25.69,16.5Z" transform="translate(0 -0.14)"/><path id="Shape-7" class="cls-3" d="M34.36,20.5a1.62,1.62,0,0,0,2.24-.1l3-3.4a1.6,1.6,0,0,0-.1-2.2,1.62,1.62,0,0,0-2.24.1l-3,3.5a2,2,0,0,0-.39,1.2A1.2,1.2,0,0,0,34.36,20.5Z" transform="translate(0 -0.14)"/><path id="Shape-8" class="cls-3" d="M45.76,26.1A1.56,1.56,0,0,0,44,24.8l-4.58.7a1.41,1.41,0,0,0-1.27,1.7,1.56,1.56,0,0,0,1.75,1.3l4.58-.7A1.55,1.55,0,0,0,45.76,26.1Z" transform="translate(0 -0.14)"/></g></g></g></g></svg>