<?xml version="1.0" encoding="utf-8"?>
<!-- Generator: Adobe Illustrator 19.2.0, SVG Export Plug-In . SVG Version: 6.00 Build 0)  -->
<svg version="1.1" id="Layer_2" xmlns="http://www.w3.org/2000/svg" xmlns:xlink="http://www.w3.org/1999/xlink" x="0px" y="0px"
	 viewBox="0 0 114 92" style="enable-background:new 0 0 114 92;" xml:space="preserve">
<style type="text/css">
	.st0{opacity:0.8;fill:url(#SVGID_1_);}
	.st1{fill:#3E2FD1;stroke:#303030;stroke-width:0.75;stroke-miterlimit:10;}
	.st2{fill:none;stroke:#9F9FFF;stroke-width:3;stroke-linecap:round;stroke-miterlimit:10;}
	.st3{fill:#F9D500;stroke:#9F9FFF;stroke-width:3;stroke-linecap:round;stroke-miterlimit:10;}
	.st4{fill:none;stroke:#9F9FFF;stroke-width:2.2;stroke-linecap:round;stroke-miterlimit:10;}
	.st5{fill:#9F9FFF;}
	.st6{fill:#F9D500;}
	.st7{fill:none;stroke:#9F9FFF;stroke-width:2.5;stroke-linecap:round;stroke-miterlimit:10;}
	.st8{fill:none;stroke:#9F9FFF;stroke-width:2.7;stroke-linecap:round;stroke-miterlimit:10;}
	.st9{fill:none;stroke:#9F9FFF;stroke-width:2.6;stroke-miterlimit:10;}
</style>
<radialGradient id="SVGID_1_" cx="57.2235" cy="140.2793" r="11.7384" gradientTransform="matrix(1 0 0 0.1522 0 60.1967)" gradientUnits="userSpaceOnUse">
	<stop  offset="0" style="stop-color:#000000"/>
	<stop  offset="0.499" style="stop-color:#868686"/>
	<stop  offset="0.8443" style="stop-color:#DDDDDD"/>
	<stop  offset="1" style="stop-color:#FFFFFF"/>
</radialGradient>
<ellipse class="st0" cx="57.2" cy="81.5" rx="11.7" ry="1.8"/>
<g>
	<g>
		<path class="st1" d="M84,35.6c0-14.9-12.1-27-26.9-27c-14.6,0-26.5,11.7-26.9,26.2h-0.1c0,0.8-0.1,1.6-0.1,2.4
			c0,19.9,24.7,43.2,25,43.5c0.7,0.6,4,0.6,4.5,0S84,55.6,84,37.2c0-0.4,0-0.7,0-1.1C84,35.9,84,35.8,84,35.6z"/>
	</g>
</g>
<g>
	<path class="st2" d="M69.1,21.2c1.3,2.1,2.6,4.3,3.9,6.4"/>
	<path class="st3" d="M62.4,21.2c0,0-2.9,2.6-4.9,5.7"/>
	<path class="st4" d="M60,22.3c0,0-0.3,0.3,5,4.9"/>
	<path class="st5" d="M64.3,20.2c0.8-0.6,0.2-1.7,0.2-1.7l1.2,0l1.2,0c0,0-0.6,1.1,0.2,1.7c1,0.7-1.4,0.7-1.4,0.7
		S63.4,20.9,64.3,20.2z"/>
	<path class="st5" d="M65.8,30.1l3.3-0.2v12.3h-2.2l-0.3-8.4c0,0,0.1-1.4-0.8-1.4c-1,0-0.8,1.4-0.8,1.4l-0.3,8.4h-2.2V29.9
		L65.8,30.1z"/>
	<g>
		<path class="st5" d="M66.7,42.5c0-0.1,0-0.2,0-0.2c0-0.8,0.6-1.4,1.4-1.4s1.4,0.6,1.4,1.4c0,0.1,0,0.2,0,0.2H66.7z"/>
		<path class="st6" d="M66.6,42.4"/>
		<path class="st6" d="M69.4,42.4c0,0.1,0,0.1,0,0.2"/>
	</g>
	<g>
		<path class="st5" d="M64.9,42.5c0-0.1,0-0.2,0-0.2c0-0.8-0.6-1.4-1.4-1.4c-0.8,0-1.4,0.6-1.4,1.4c0,0.1,0,0.2,0,0.2H64.9z"/>
	</g>
	<g>
		<ellipse class="st5" cx="67.9" cy="16.4" rx="0.5" ry="0.7"/>
		<ellipse class="st5" cx="63.6" cy="16.4" rx="0.5" ry="0.7"/>
	</g>
	<path class="st5" d="M67,19.1h-2.4c-0.5-0.7-0.8-1.4-0.8-2.6c0-1.5,0.3-2.8,2.1-2.8c1.8,0,2.1,1.2,2.1,2.8
		C67.8,17.7,67.5,18.4,67,19.1z"/>
	<path class="st5" d="M62,19.9h2.6c0.5,0.9,1.2,0.8,1.2,0.8s0.7,0.2,1.2-0.8h2.6c0,0-0.7,4.4-0.2,10.3h-3.6h-3.6
		C62.7,24.4,62,19.9,62,19.9z"/>
	<path class="st7" d="M45.9,21.2c0,0-2.7,2.3-3.4,6.7"/>
	<path class="st8" d="M52.6,21.2c0,0,2.9,2.6,4.9,5.7"/>
	<path class="st5" d="M50.7,20.2c-0.8-0.6-0.2-1.7-0.2-1.7l-1.2,0l-1.2,0c0,0,0.6,1.1-0.2,1.7c-1,0.7,1.4,0.7,1.4,0.7
		S51.7,20.9,50.7,20.2z"/>
	<path class="st5" d="M49.3,30.1l-3.3-0.2v12.3h2.2l0.3-8.4c0,0-0.1-1.4,0.8-1.4c1,0,0.8,1.4,0.8,1.4l0.3,8.4h2.2V29.9L49.3,30.1z"
		/>
	<path class="st4" d="M55,22.3c0,0,0.3,0.3-5,4.9"/>
	<path class="st5" d="M60.4,19.7c0,1.7-1.3,3-2.9,3l0,0c-1.6,0-2.9-1.3-2.9-3v-2.2c0-1.7,1.3-3,2.9-3l0,0c1.6,0,2.9,1.3,2.9,3V19.7z
		"/>
	<line class="st9" x1="56" y1="32.2" x2="56" y2="42.4"/>
	<path class="st5" d="M57,42.6c0-0.1,0-0.1,0-0.2c0-0.5-0.4-1-1-1c-0.5,0-1,0.4-1,1c0,0.1,0,0.1,0,0.2H57z"/>
	<line class="st9" x1="59" y1="32.2" x2="59" y2="42.4"/>
	<path class="st5" d="M58,42.6c0-0.1,0-0.1,0-0.2c0-0.5,0.4-1,1-1c0.5,0,1,0.4,1,1c0,0.1,0,0.1,0,0.2H58z"/>
	<g>
		<path class="st5" d="M48.4,42.5c0-0.1,0-0.2,0-0.2c0-0.8-0.6-1.4-1.4-1.4c-0.8,0-1.4,0.6-1.4,1.4c0,0.1,0,0.2,0,0.2H48.4z"/>
		<path class="st5" d="M45.6,42.4c0,0.1,0,0.1,0,0.2h2.7c0-0.1,0-0.1,0-0.2H45.6z"/>
	</g>
	<g>
		<path class="st5" d="M50.1,42.5c0-0.1,0-0.2,0-0.2c0-0.8,0.6-1.4,1.4-1.4c0.8,0,1.4,0.6,1.4,1.4c0,0.1,0,0.2,0,0.2H50.1z"/>
		<path class="st5" d="M50.1,42.4c0,0.1,0,0.1,0,0.2h2.7c0-0.1,0-0.1,0-0.2H50.1z"/>
	</g>
	<path class="st5" d="M59.6,28h-2.1h-2.1c0,0-1.5,1.9-0.6,12.4h5.4C61.1,29.8,59.6,28,59.6,28z"/>
	<polygon class="st5" points="57.5,27.4 55.5,27.4 55.5,28 57.5,28 59.6,28 59.6,27.4 	"/>
	<ellipse class="st5" cx="55.3" cy="17.8" rx="0.5" ry="0.7"/>
	<ellipse class="st5" cx="59.6" cy="17.8" rx="0.5" ry="0.7"/>
	<path class="st5" d="M59.9,23.1c0.2-0.8,0.9-0.9,0.9-0.9c-0.8-1.1-2.2-0.8-2.2-0.8l-1.1,0.9l-1.1-0.9c0,0-1.4-0.3-2.2,0.8
		c0,0,0.7,0.1,0.9,0.9c0,0,0,0,0,0.1c0.1,0.9-0.3,1.3,0.1,2.1c0,0,0.4,1.3,0.2,2.2h2.1h2.1c-0.2-1,0.2-2.2,0.2-2.2
		C60.1,24.5,59.7,24,59.9,23.1C59.9,23.1,59.9,23.1,59.9,23.1z"/>
	<path class="st5" d="M58.1,21.1c0,0-0.1-1,0-1.5c0.2-0.5-0.6,0.4-0.6,0.4s-0.8-0.9-0.6-0.4c0.2,0.5,0,1.5,0,1.5l-0.5,0.2
		c0.2,1.4,1.1,1.1,1.1,1.1s0.9,0.3,1.1-1.1L58.1,21.1z"/>
	<path class="st5" d="M59.6,17.9c0,2-1.5,2.8-2.1,2.8c-0.6,0-2.1-0.9-2.1-2.8c0-1.5,0.3-2.8,2.1-2.8C59.3,15.1,59.6,16.4,59.6,17.9z
		"/>
	<g>
		<ellipse class="st5" cx="47.1" cy="16.4" rx="0.5" ry="0.7"/>
		<ellipse class="st5" cx="51.4" cy="16.4" rx="0.5" ry="0.7"/>
	</g>
	<path class="st5" d="M48.1,19.1h2.4c0.5-0.7,0.8-1.4,0.8-2.6c0-1.5-0.3-2.8-2.1-2.8c-1.8,0-2.1,1.2-2.1,2.8
		C47.2,17.7,47.5,18.4,48.1,19.1z"/>
	<path class="st5" d="M58.7,16.6c0,0-1.5,1.4-3.2,0.6c0,0-0.3-2.2,2-2.2c2.3,0,2,2.1,2,2.1S59,17.2,58.7,16.6z"/>
	<path class="st5" d="M53.1,19.9h-2.6c-0.5,0.9-1.2,0.8-1.2,0.8s-0.7,0.2-1.2-0.8h-2.6c0,0,0.7,4.4,0.2,10.3h3.6h3.6
		C52.4,24.4,53.1,19.9,53.1,19.9z"/>
	<path class="st5" d="M43.4,28.9c-0.1,0.6-0.6,1.1-1.1,1c-0.5-0.1-0.9-0.7-0.8-1.3c0.1-0.6,0.6-1.1,1.1-1
		C43.1,27.7,43.5,28.3,43.4,28.9z"/>
	<path class="st5" d="M67.8,14l-0.2,0l0-0.2l-0.2-0.1l-0.1-0.2l-0.2,0l-0.1-0.4l-0.2,0.1l-0.1-0.3l-0.3,0.2l-0.1-0.4l-0.3,0.3
		l-0.1-0.4c0-0.1-0.1-0.2-0.1-0.2s0,0.1-0.1,0.2l-0.1,0.4l-0.3-0.3l-0.1,0.4l-0.3-0.2l-0.1,0.3l-0.2-0.1l-0.1,0.4l-0.2,0l-0.1,0.2
		L64,13.9l0,0.2l-0.2,0l-0.2,1.7l0.2,0v1.2l0.4,0c0,0,0-1.6,0.3-2.1c0,0,0.6,0.2,1.4,0.2c0.8,0,1.4-0.2,1.4-0.2
		c0.3,0.5,0.3,2.1,0.3,2.1l0.4,0v-1.2l0.2,0L67.8,14z"/>
	<path class="st5" d="M47.1,15.8c0,0-0.2-1.2,0.3-1.8c0.5-0.6,2.3,0.2,3.2-2.5c0,0,0.2,1.1-0.1,1.6c0,0,0.5,0,0.6-0.3
		c0,0,0.1,0.7-0.2,0.8c0,0,0.6,0.2,0.9-0.2c0,0-0.1,0.7-0.4,0.8c0,0,0.1,0.3,0.4,0.2l-0.4,0.4c0,0,0.2,0.6,0.1,1c0,0-0.2,0-0.2,0.1
		c0,0-0.4-0.9-0.5-1c0,0-1.4,0.9-3.1-0.2c0,0,0.1,0.7-0.5,1.1C47.2,15.8,47.2,15.8,47.1,15.8z"/>
</g>
</svg>
