<?xml version="1.0" encoding="utf-8"?>
<!-- Generator: Adobe Illustrator 19.2.0, SVG Export Plug-In . SVG Version: 6.00 Build 0)  -->
<svg version="1.1" id="Layer_2" xmlns="http://www.w3.org/2000/svg" xmlns:xlink="http://www.w3.org/1999/xlink" x="0px" y="0px"
	 viewBox="0 0 54 74.7" style="enable-background:new 0 0 54 74.7;" xml:space="preserve">
<style type="text/css">
	.st0{opacity:0.8;fill:url(#SVGID_1_);enable-background:new    ;}
	.st1{fill:#3E2FD1;}
	.st2{fill:#303030;}
	.st3{fill:none;stroke:#9F9FFF;stroke-width:3;stroke-linecap:round;stroke-miterlimit:10;}
	.st4{fill:#F9D500;stroke:#9F9FFF;stroke-width:3;stroke-linecap:round;stroke-miterlimit:10;}
	.st5{fill:none;stroke:#9F9FFF;stroke-width:2.2;stroke-linecap:round;stroke-miterlimit:10;}
	.st6{fill:#9F9FFF;}
	.st7{fill:#F9D500;}
	.st8{fill:none;stroke:#9F9FFF;stroke-width:2.5;stroke-linecap:round;stroke-miterlimit:10;}
	.st9{fill:none;stroke:#9F9FFF;stroke-width:2.7;stroke-linecap:round;stroke-miterlimit:10;}
	.st10{fill:none;stroke:#9F9FFF;stroke-width:2.6;stroke-miterlimit:10;}
</style>
<radialGradient id="SVGID_1_" cx="27.2235" cy="-41.1684" r="11.7384" gradientTransform="matrix(1 0 0 -0.1522 0 66.6814)" gradientUnits="userSpaceOnUse">
	<stop  offset="0" style="stop-color:#000000"/>
	<stop  offset="0.499" style="stop-color:#868686"/>
	<stop  offset="0.8443" style="stop-color:#DDDDDD"/>
	<stop  offset="1" style="stop-color:#FFFFFF"/>
</radialGradient>
<ellipse class="st0" cx="27.2" cy="72.9" rx="11.7" ry="1.8"/>
<g>
	<g>
		<g>
			<path class="st1" d="M27.3,72.2c-1.1,0-1.9-0.2-2.1-0.4C22.7,69.3,0.4,47.3,0.4,28.6c0-0.4,0-0.8,0-1.2c0-0.3,0-0.6,0-0.8h0.1
				l0-0.4C1,12,12.9,0.4,27.1,0.4c14.6,0,26.5,11.9,26.5,26.6v1.6c0,16-18.4,36.9-24.1,42.9c-0.2,0.2-0.3,0.3-0.3,0.3
				C29.1,72,28.5,72.2,27.3,72.2z"/>
			<path class="st2" d="M27.1,0.8c14.4,0,26.1,11.8,26.1,26.2v0.5v1.1c0,15.8-18.4,36.7-24,42.7c-0.1,0.2-0.2,0.3-0.3,0.3
				c-0.1,0.1-0.7,0.2-1.6,0.2c-1.1,0-1.7-0.2-1.8-0.3l0,0C22.9,69.1,0.8,47.2,0.8,28.6c0-0.4,0-0.8,0-1.2c0-0.2,0-0.3,0-0.5h0.1
				l0-0.7c0.2-6.8,3-13.2,7.9-18C13.8,3.4,20.2,0.8,27.1,0.8 M27.1,0C12.5,0,0.6,11.7,0.2,26.2H0.1C0.1,27,0,27.8,0,28.6
				c0,19.9,24.7,43.2,25,43.5c0.3,0.3,1.3,0.4,2.3,0.4c1,0,1.9-0.1,2.2-0.4C30,71.5,54,47,54,28.6c0-0.4,0-0.7,0-1.1
				c0-0.2,0-0.3,0-0.5C54,12.1,41.9,0,27.1,0L27.1,0z"/>
		</g>
	</g>
</g>
<g>
	<path class="st3" d="M39.1,12.6c1.3,2.1,2.6,4.3,3.9,6.4"/>
	<path class="st4" d="M32.4,12.6c0,0-2.9,2.6-4.9,5.7"/>
	<path class="st5" d="M30,13.7c0,0-0.3,0.3,5,4.9"/>
	<path class="st6" d="M34.3,11.6c0.8-0.6,0.2-1.7,0.2-1.7h1.2h1.2c0,0-0.6,1.1,0.2,1.7c1,0.7-1.4,0.7-1.4,0.7S33.4,12.3,34.3,11.6z"
		/>
	<path class="st6" d="M35.8,21.5l3.3-0.2v12.3h-2.2l-0.3-8.4c0,0,0.1-1.4-0.8-1.4c-1,0-0.8,1.4-0.8,1.4l-0.3,8.4h-2.2V21.3
		L35.8,21.5z"/>
	<g>
		<path class="st6" d="M36.7,33.9c0-0.1,0-0.2,0-0.2c0-0.8,0.6-1.4,1.4-1.4s1.4,0.6,1.4,1.4c0,0.1,0,0.2,0,0.2H36.7z"/>
		<path class="st7" d="M36.6,33.8"/>
		<path class="st7" d="M39.4,33.8c0,0.1,0,0.1,0,0.2"/>
	</g>
	<g>
		<path class="st6" d="M34.9,33.9c0-0.1,0-0.2,0-0.2c0-0.8-0.6-1.4-1.4-1.4c-0.8,0-1.4,0.6-1.4,1.4c0,0.1,0,0.2,0,0.2H34.9z"/>
	</g>
	<g>
		<ellipse class="st6" cx="37.9" cy="7.8" rx="0.5" ry="0.7"/>
		<ellipse class="st6" cx="33.6" cy="7.8" rx="0.5" ry="0.7"/>
	</g>
	<path class="st6" d="M37,10.5h-2.4c-0.5-0.7-0.8-1.4-0.8-2.6c0-1.5,0.3-2.8,2.1-2.8S38,6.3,38,7.9C37.8,9.1,37.5,9.8,37,10.5z"/>
	<path class="st6" d="M32,11.3h2.6c0.5,0.9,1.2,0.8,1.2,0.8s0.7,0.2,1.2-0.8h2.6c0,0-0.7,4.4-0.2,10.3h-3.6h-3.6
		C32.7,15.8,32,11.3,32,11.3z"/>
	<path class="st8" d="M15.9,12.6c0,0-2.7,2.3-3.4,6.7"/>
	<path class="st9" d="M22.6,12.6c0,0,2.9,2.6,4.9,5.7"/>
	<path class="st6" d="M20.7,11.6c-0.8-0.6-0.2-1.7-0.2-1.7h-1.2h-1.2c0,0,0.6,1.1-0.2,1.7c-1,0.7,1.4,0.7,1.4,0.7
		S21.7,12.3,20.7,11.6z"/>
	<path class="st6" d="M19.3,21.5L16,21.3v12.3h2.2l0.3-8.4c0,0-0.1-1.4,0.8-1.4c1,0,0.8,1.4,0.8,1.4l0.3,8.4h2.2V21.3L19.3,21.5z"/>
	<path class="st5" d="M25,13.7c0,0,0.3,0.3-5,4.9"/>
	<path class="st6" d="M30.4,11.1c0,1.7-1.3,3-2.9,3l0,0c-1.6,0-2.9-1.3-2.9-3V8.9c0-1.7,1.3-3,2.9-3l0,0c1.6,0,2.9,1.3,2.9,3V11.1z"
		/>
	<line class="st10" x1="26" y1="23.6" x2="26" y2="33.8"/>
	<path class="st6" d="M27,34c0-0.1,0-0.1,0-0.2c0-0.5-0.4-1-1-1c-0.5,0-1,0.4-1,1c0,0.1,0,0.1,0,0.2H27z"/>
	<line class="st10" x1="29" y1="23.6" x2="29" y2="33.8"/>
	<path class="st6" d="M28,34c0-0.1,0-0.1,0-0.2c0-0.5,0.4-1,1-1c0.5,0,1,0.4,1,1c0,0.1,0,0.1,0,0.2H28z"/>
	<g>
		<path class="st6" d="M18.4,33.9c0-0.1,0-0.2,0-0.2c0-0.8-0.6-1.4-1.4-1.4c-0.8,0-1.4,0.6-1.4,1.4c0,0.1,0,0.2,0,0.2H18.4z"/>
		<path class="st6" d="M15.6,33.8c0,0.1,0,0.1,0,0.2h2.7c0-0.1,0-0.1,0-0.2H15.6z"/>
	</g>
	<g>
		<path class="st6" d="M20.1,33.9c0-0.1,0-0.2,0-0.2c0-0.8,0.6-1.4,1.4-1.4c0.8,0,1.4,0.6,1.4,1.4c0,0.1,0,0.2,0,0.2H20.1z"/>
		<path class="st6" d="M20.1,33.8c0,0.1,0,0.1,0,0.2h2.7c0-0.1,0-0.1,0-0.2H20.1z"/>
	</g>
	<path class="st6" d="M29.6,19.4h-2.1h-2.1c0,0-1.5,1.9-0.6,12.4h5.4C31.1,21.2,29.6,19.4,29.6,19.4z"/>
	<polygon class="st6" points="27.5,18.8 25.5,18.8 25.5,19.4 27.5,19.4 29.6,19.4 29.6,18.8 	"/>
	<ellipse class="st6" cx="25.3" cy="9.2" rx="0.5" ry="0.7"/>
	<ellipse class="st6" cx="29.6" cy="9.2" rx="0.5" ry="0.7"/>
	<path class="st6" d="M29.9,14.5c0.2-0.8,0.9-0.9,0.9-0.9c-0.8-1.1-2.2-0.8-2.2-0.8l-1.1,0.9l-1.1-0.9c0,0-1.4-0.3-2.2,0.8
		c0,0,0.7,0.1,0.9,0.9c0,0,0,0,0,0.1c0.1,0.9-0.3,1.3,0.1,2.1c0,0,0.4,1.3,0.2,2.2h2.1h2.1c-0.2-1,0.2-2.2,0.2-2.2
		C30.1,15.9,29.7,15.4,29.9,14.5L29.9,14.5z"/>
	<path class="st6" d="M28.1,12.5c0,0-0.1-1,0-1.5c0.2-0.5-0.6,0.4-0.6,0.4s-0.8-0.9-0.6-0.4s0,1.5,0,1.5l-0.5,0.2
		c0.2,1.4,1.1,1.1,1.1,1.1s0.9,0.3,1.1-1.1L28.1,12.5z"/>
	<path class="st6" d="M29.6,9.3c0,2-1.5,2.8-2.1,2.8s-2.1-0.9-2.1-2.8c0-1.5,0.3-2.8,2.1-2.8C29.3,6.5,29.6,7.8,29.6,9.3z"/>
	<g>
		<ellipse class="st6" cx="17.1" cy="7.8" rx="0.5" ry="0.7"/>
		<ellipse class="st6" cx="21.4" cy="7.8" rx="0.5" ry="0.7"/>
	</g>
	<path class="st6" d="M18.1,10.5h2.4c0.5-0.7,0.8-1.4,0.8-2.6c0-1.5-0.3-2.8-2.1-2.8s-2.1,1.2-2.1,2.8C17.2,9.1,17.5,9.8,18.1,10.5z
		"/>
	<path class="st6" d="M28.7,8c0,0-1.5,1.4-3.2,0.6c0,0-0.3-2.2,2-2.2s2,2.1,2,2.1S29,8.6,28.7,8z"/>
	<path class="st6" d="M23.1,11.3h-2.6c-0.5,0.9-1.2,0.8-1.2,0.8s-0.7,0.2-1.2-0.8h-2.6c0,0,0.7,4.4,0.2,10.3h3.6h3.6
		C22.4,15.8,23.1,11.3,23.1,11.3z"/>
	<path class="st6" d="M13.4,20.3c-0.1,0.6-0.6,1.1-1.1,1s-0.9-0.7-0.8-1.3c0.1-0.6,0.6-1.1,1.1-1C13.1,19.1,13.5,19.7,13.4,20.3z"/>
	<path class="st6" d="M37.8,5.4h-0.2V5.2l-0.2-0.1l-0.1-0.2h-0.2L37,4.5l-0.2,0.1l-0.1-0.3l-0.3,0.2l-0.1-0.4L36,4.4L35.9,4
		c0-0.1-0.1-0.2-0.1-0.2s0,0.1-0.1,0.2l-0.1,0.4l-0.3-0.3l-0.1,0.4l-0.3-0.2l-0.1,0.3l-0.2-0.1l-0.1,0.4h-0.2l-0.1,0.2L34,5.3v0.2
		h-0.2l-0.2,1.7h0.2v1.2h0.4c0,0,0-1.6,0.3-2.1c0,0,0.6,0.2,1.4,0.2s1.4-0.2,1.4-0.2c0.3,0.5,0.3,2.1,0.3,2.1H38V7.2h0.2L37.8,5.4z"
		/>
	<path class="st6" d="M17.1,7.2c0,0-0.2-1.2,0.3-1.8s2.3,0.2,3.2-2.5c0,0,0.2,1.1-0.1,1.6c0,0,0.5,0,0.6-0.3c0,0,0.1,0.7-0.2,0.8
		c0,0,0.6,0.2,0.9-0.2c0,0-0.1,0.7-0.4,0.8c0,0,0.1,0.3,0.4,0.2l-0.4,0.4c0,0,0.2,0.6,0.1,1c0,0-0.2,0-0.2,0.1c0,0-0.4-0.9-0.5-1
		c0,0-1.4,0.9-3.1-0.2C17.7,6.1,17.8,6.8,17.1,7.2C17.2,7.2,17.2,7.2,17.1,7.2z"/>
</g>
</svg>
