<?xml version="1.0" encoding="utf-8"?>
<!-- Generator: Adobe Illustrator 19.2.0, SVG Export Plug-In . SVG Version: 6.00 Build 0)  -->
<svg version="1.1" id="Layer_2" xmlns="http://www.w3.org/2000/svg" xmlns:xlink="http://www.w3.org/1999/xlink" x="0px" y="0px"
	 viewBox="0 0 54.1 74.6" style="enable-background:new 0 0 54.1 74.6;" xml:space="preserve">
<style type="text/css">
	.st0{opacity:0.8;fill:url(#SVGID_1_);enable-background:new    ;}
	.st1{fill:#30776B;}
	.st2{fill:#303030;}
	.st3{fill:#7CCE6F;}
</style>
<radialGradient id="SVGID_1_" cx="27.3486" cy="-39.9049" r="11.7384" gradientTransform="matrix(1 0 0 -0.1522 0 66.6814)" gradientUnits="userSpaceOnUse">
	<stop  offset="0" style="stop-color:#000000"/>
	<stop  offset="0.499" style="stop-color:#868686"/>
	<stop  offset="0.8443" style="stop-color:#DDDDDD"/>
	<stop  offset="1" style="stop-color:#FFFFFF"/>
</radialGradient>
<ellipse class="st0" cx="27.3" cy="72.8" rx="11.7" ry="1.8"/>
<g>
	<g>
		<path class="st1" d="M27.3,72.2c-1.1,0-1.9-0.2-2.1-0.4C25,71.6,0.4,48.4,0.4,28.6c0-0.4,0-0.8,0-1.2c0-0.3,0-0.6,0-0.8h0.1l0-0.4
			C1,12,12.9,0.4,27.1,0.4c14.7,0,26.6,11.9,26.6,26.6v1.6c0,18.4-24.2,43-24.5,43.2C29.1,72,28.5,72.2,27.3,72.2z"/>
		<path class="st2" d="M27.1,0.7c14.5,0,26.2,11.8,26.2,26.3v0.5v1.1c0,18.1-24.1,42.7-24.3,42.9l0,0l0,0c-0.1,0.1-0.7,0.2-1.6,0.2
			c-1.1,0-1.7-0.2-1.8-0.3l0,0l0,0c-0.7-0.6-6.8-6.6-12.6-14.5C7.3,49.6,0.8,38.6,0.8,28.6c0-0.4,0-0.8,0-1.2c0-0.2,0-0.3,0-0.5h0.1
			l0-0.7c0.2-6.8,3-13.2,7.9-18C13.8,3.4,20.2,0.7,27.1,0.7 M27.1,0C12.5,0,0.6,11.7,0.2,26.2H0.1C0.1,27,0,27.8,0,28.6
			c0,19.9,24.7,43.3,25,43.5c0.3,0.3,1.3,0.5,2.3,0.5c1,0,1.9-0.2,2.2-0.5c0.7-0.6,24.6-25.1,24.6-43.5c0-0.4,0-0.7,0-1.1
			c0-0.2,0-0.3,0-0.5C54.1,12.1,42,0,27.1,0L27.1,0z"/>
	</g>
</g>
<g id="xTqf4Q.tif">
	<g>
		<g>
			<path class="st3" d="M22.4,25.4c0.9,0.9,1.8,1.8,2.8,2.8c0.1,0.1,0.1,0.2,0,0.3c-1.7,1.7-3.4,3.5-5.1,5.2c-1.9,1.9-5,2.3-7.3,0.9
				c-1.6-1-2.4-2.5-2.5-4.3c-0.1-1.9,0.5-3.6,1.9-4.9c1.6-1.6,3.2-3.2,4.8-4.8c0.2-0.2,0.3-0.2,0.4,0c0.9,1,1.9,1.9,2.8,2.9
				c0,0.1-0.1,0.2-0.2,0.3c-0.3,0.3-0.7,0.7-1,1c-0.8,0.8-1.7,1.7-2.5,2.5c-0.5,0.5-0.5,1.2,0,1.7c0.2,0.2,0.3,0.3,0.5,0.5
				c0.1,0.1,0.2,0.2,0.3,0.2c0.5,0.1,1,0,1.4-0.4c1.1-1.1,2.3-2.3,3.4-3.4C22.2,25.5,22.3,25.4,22.4,25.4z"/>
			<path class="st3" d="M32.4,11.5c-0.6-0.7-1-1.4-1.1-2.3c-0.2-1.3,0.1-2.4,1-3.4c0.8-0.8,1.6-1.6,2.3-2.4c0.2-0.2,0.2,0,0.3,0
				c0.9,0.9,1.7,1.7,2.6,2.6c1.6,1.6,3.2,3.2,4.8,4.8c0.2,0.1,0.1,0.2,0,0.4c-0.7,0.7-1.4,1.4-2.1,2.1c-1.6,1.7-4.1,1.7-5.8,0.1
				c-0.1-0.1-0.1-0.1-0.2-0.2C33.6,12.7,33,12.1,32.4,11.5z M37,12.6c0.7,0,1.2-0.2,1.6-0.5c0.3-0.3,0.6-0.6,0.9-0.9
				c0.1-0.1,0-0.2,0-0.3c-1.5-1.5-3-3-4.5-4.5c-0.1-0.1-0.2-0.1-0.3,0c-0.2,0.2-0.4,0.5-0.7,0.7c-0.9,0.9-0.9,2.1,0,3
				c0.6,0.6,1.2,1.3,1.9,1.9C36.2,12.4,36.7,12.6,37,12.6z"/>
			<path class="st3" d="M32.4,11.5c0.6,0.6,1.2,1.2,1.8,1.8c-0.2,0.2-0.4,0.4-0.6,0.6c-3.7,3.7-7.4,7.4-11,11.1
				c-0.1,0.1-0.1,0.1-0.2,0.2c-0.6-0.6-1.2-1.2-1.8-1.8c3.8-3.9,7.7-7.7,11.5-11.6C32.2,11.7,32.3,11.6,32.4,11.5z"/>
			<path class="st3" d="M20.6,23.4c0.6,0.6,1.2,1.2,1.8,1.8c0,0.1,0,0.1,0.1,0.2c-0.1,0-0.2,0.1-0.3,0.2c-1.1,1.1-2.2,2.3-3.4,3.4
				c-0.4,0.4-0.8,0.5-1.4,0.4c-0.1,0-0.2-0.1-0.3-0.2c-0.2-0.2-0.3-0.3-0.5-0.5c-0.5-0.5-0.5-1.2,0-1.7c0.8-0.8,1.7-1.6,2.5-2.5
				c0.3-0.3,0.7-0.7,1-1c0.1-0.1,0.2-0.1,0.2-0.3C20.4,23.2,20.5,23.3,20.6,23.4z"/>
		</g>
	</g>
</g>
</svg>
