<?xml version="1.0" encoding="utf-8"?>
<!-- Generator: Adobe Illustrator 19.2.0, SVG Export Plug-In . SVG Version: 6.00 Build 0)  -->
<svg version="1.1" id="Layer_2" xmlns="http://www.w3.org/2000/svg" xmlns:xlink="http://www.w3.org/1999/xlink" x="0px" y="0px"
	 viewBox="0 0 114 92" style="enable-background:new 0 0 114 92;" xml:space="preserve">
<style type="text/css">
	.st0{opacity:0.8;fill:url(#SVGID_1_);}
	.st1{fill:#C6741C;}
	.st2{fill:none;stroke:#303030;stroke-width:0.75;stroke-miterlimit:10;}
	.st3{fill:#EDA05A;}
</style>
<radialGradient id="SVGID_1_" cx="57.2027" cy="139.6321" r="11.7384" gradientTransform="matrix(1 0 0 0.1522 0 60.1967)" gradientUnits="userSpaceOnUse">
	<stop  offset="0" style="stop-color:#000000"/>
	<stop  offset="0.499" style="stop-color:#868686"/>
	<stop  offset="0.8443" style="stop-color:#DDDDDD"/>
	<stop  offset="1" style="stop-color:#FFFFFF"/>
</radialGradient>
<ellipse class="st0" cx="57.2" cy="81.4" rx="11.7" ry="1.8"/>
<g>
	<g>
		<g>
			<g>
				<path class="st1" d="M84,35.6c0-14.9-12.1-27-26.9-27c-14.6,0-26.5,11.7-26.9,26.2h-0.1c0,0.8-0.1,1.6-0.1,2.4
					c0,19.9,24.7,43.2,25,43.5c0.7,0.6,4,0.6,4.5,0S84,55.6,84,37.2c0-0.4,0-0.7,0-1.1C84,35.9,84,35.8,84,35.6z"/>
			</g>
			<g>
				<path class="st2" d="M84,35.6c0-14.9-12.1-27-26.9-27c-14.6,0-26.5,11.7-26.9,26.2h-0.1c0,0.8-0.1,1.6-0.1,2.4
					c0,19.9,24.7,43.2,25,43.5c0.7,0.6,4,0.6,4.5,0S84,55.6,84,37.2c0-0.4,0-0.7,0-1.1C84,35.9,84,35.8,84,35.6z"/>
			</g>
		</g>
	</g>
</g>
<path class="st3" d="M58.6,30.9c-0.1,1-0.1,1.9-0.1,2.6c0,0.7,0,2.3,0,3.9c0,0.3,0,0.6,0,1.1c0,0.7,0,1,0,1.6c0,0.3,0,0.7,0.1,1.2
	c0,0.5-0.3,0.9-0.7,0.9c-0.4,0.1-0.7-0.3-0.7-0.4c-0.2-0.2-0.2-0.5-0.2-1c0,0,0-0.2,0-1.4c0-0.4,0-0.2-0.1-1.6c0-0.6-0.1-1-0.1-1.3
	c0-0.4,0-0.7,0-0.8c-0.1-0.8-0.1-1.6-0.2-2.4c-0.1-1-0.2-2.1-0.3-3.2c-0.5,0-0.7,0.3-1,0.5c-0.4,0.3-0.8,0.6-1.2,0.8
	c-0.1,0.1-0.2,0.1-0.3,0.2c-3.2,2.8-4.6,4-5.2,4.5c-0.1,0.1-0.5,0.5-1.1,1c-0.9,0.8-0.8,0.7-1.1,1c-0.7,0.7-0.8,0.9-1.2,1.1
	c-0.2,0.1-0.9,0.5-1.3,0.2c-0.3-0.2-0.3-0.9,0.1-1.6c0.3-0.3,0.8-0.7,1.4-1.3c0.6-0.5,1-0.9,1.2-1c1.3-1.1,1.5-1.4,3-2.6
	c1-0.9,1.7-1.5,2.2-2c0.4-0.4,1.2-0.8,1.7-1.7c0.2-0.3,0.3-0.5,0.3-0.7c-0.1,0-0.2,0-0.3,0c-0.2,0-0.3,0-0.5,0c-1,0-1.9,0-2.5,0
	c-0.6,0-0.7,0-2.4-0.1c-0.6,0-1.3-0.1-1.9-0.1c-1.4,0-2.1,0-2.9-0.3c-0.3-0.1-0.7-0.4-0.7-0.7c0-0.4,0.6-0.6,0.6-0.6
	c0.3,0,0.7-0.1,1.1-0.1c0,0,1-0.1,1.9-0.1c1.2-0.1,2,0,2.9,0c0.9,0,2.2,0,3.9,0c-0.7-1.1-1.1-1.4-1.2-1.5c0,0,0,0-0.3-0.2
	c0,0-0.2-0.2-0.3-0.2c-0.9-0.7-2.6-2.4-2.6-2.4c-0.9-0.9-1.1-1-1.5-1.4c-0.2-0.1-0.4-0.4-0.9-0.9c-0.5-0.5-0.8-0.7-1-1
	c-0.1-0.1-0.2-0.2-0.2-0.2c-0.3-0.3-0.9-1-1.2-1.9c-0.1-0.4-0.2-0.8,0-1.1c0.2-0.3,0.7-0.2,0.8-0.2c0.4,0.1,0.6,0.3,0.8,0.5
	c0.6,0.6,0.8,1,1.2,1.4c0.6,0.7,0.9,0.6,1.8,1.5c0.5,0.4,0.7,0.7,1.1,1.1c1.3,1.4,1.5,1.3,3.2,3c1,0.9,1.5,1.4,2.5,2.3
	c0.2,0.2,0.4,0.3,0.8,0.6c0-0.4,0-0.6,0-0.9c-0.1-0.7,0-2.5-0.5-7c-0.1-0.7-0.1-1.4-0.1-2c-0.1-1.3-0.2-1.8,0.1-2.1
	c0.3-0.3,0.9-0.4,1.3-0.1c0.4,0.2,0.6,0.8,0.8,1.9c0.2,1.3,0.4,2.3,0.5,2.9c0.1,1.1,0.1,2.2,0.2,3.3c0.1,1,0.1,2.1,0.2,3.1
	c0.2-0.1,0.4-0.1,0.5-0.2c1.4-1.1,2.8-2.1,3.9-3.5c0.3-0.3,0.4-0.5,0.7-0.7c0.8-0.8,0.9-0.9,1.5-1.6c0.7-0.8,0.6-0.7,1.2-1.3
	c0.5-0.5,0.6-0.6,1.1-1.1c0.3-0.3,0.5-0.6,0.8-0.9c0.4-0.4,0.4-0.5,0.6-0.6c0.4-0.2,1-0.2,1.3,0.1c0.3,0.4-0.1,1.3-0.3,1.6
	c-0.3,0.5-0.5,0.6-1.4,1.6c0,0-0.4,0.4-1.1,1.2c-0.6,0.6-1,1.2-1.4,1.6c-0.2,0.2-0.4,0.4-0.7,0.7c-0.7,0.7-0.9,0.9-1.1,1.2
	c-0.6,0.6-1,1-1.2,1.2c-0.5,0.5-1.3,1.3-2.5,2.2c0.3,0,0.6,0,1.1,0c3.2,0,3.2,0.1,4.7,0.1c1.4,0,2.7,0,4.1,0c0.3,0,0.6,0,0.9,0.1
	c0.3,0,0.6,0.2,0.6,0.5c0,0.3,0,0.7-0.4,0.8c-0.3,0.1-0.6,0.2-0.9,0.2c-0.5,0.1-1.1,0.1-1.7,0.1c-1,0-1.9,0.1-2.9,0.3
	c-0.2,0-0.3,0-0.6,0c-0.4,0-1.9,0.1-4.5,0.1c-0.2,0-0.6,0-1,0c0.1,0.1,0.3,0.4,0.5,0.6c0.6,0.6,1.1,0.9,1.2,1
	c0.3,0.2,1.2,1.1,2.9,2.8c1.1,1.1,1.7,1.7,2.5,2.5c2.3,2.5,1.6,2.2,2.3,2.7c0.1,0.1,0.5,0.4,0.7,1c0,0.1,0.3,0.9-0.1,1.2
	c-0.3,0.3-0.9,0.1-0.9,0.1c-0.5-0.2-0.6-0.6-1.2-1.3c-0.2-0.2-0.1-0.1-0.9-1c-1.4-1.5-1.2-1.4-1.7-1.9c-0.7-0.7-0.8-0.6-1.9-1.5
	c-0.3-0.3-0.6-0.5-0.9-0.8c-0.6-0.7-1-1-1.1-1c-0.2-0.2-0.4-0.3-1.5-1.2C59.4,31.6,59.1,31.3,58.6,30.9z"/>
</svg>
