<svg id="Layer_1" data-name="Layer 1" xmlns="http://www.w3.org/2000/svg" xmlns:xlink="http://www.w3.org/1999/xlink" viewBox="0 0 54.5 75.86"><defs><style>.cls-1{fill:url(#radial-gradient);}.cls-2{stroke:#454545;stroke-width:0.5px;fill:url(#linear-gradient);}.cls-3{fill:#f6bcf3;}</style><radialGradient id="radial-gradient" cx="-98.11" cy="6.39" r="1.13" gradientTransform="translate(-56.84 -318.58) rotate(-90) scale(4 13.24)" gradientUnits="userSpaceOnUse"><stop offset="0" stop-color="#474747"/><stop offset="1" stop-color="#fff"/></radialGradient><linearGradient id="linear-gradient" x1="-71.15" y1="1.8" x2="-71.15" y2="2.8" gradientTransform="translate(3869.25 -128.38) scale(54 72)" gradientUnits="userSpaceOnUse"><stop offset="0" stop-color="#ce6dd4"/><stop offset="1" stop-color="#84288a"/></linearGradient></defs><title>Other gradient</title><g id="Page-1"><g id="Other-gradient"><g id="list-icon-development-copy"><ellipse id="Oval-3" class="cls-1" cx="27.75" cy="73.86" rx="12.5" ry="2"/><path id="Shape" class="cls-2" d="M0.25,27v2.38c0,19.72,24.65,42.93,25,43.12a4.12,4.12,0,0,0,2.3.5,3.73,3.73,0,0,0,2.2-.5c0.64-.59,24.5-24.89,24.5-43.14V27.78A27,27,0,1,0,.25,27Z" transform="translate(0 -0.14)"/></g><path id="Shape-2" class="cls-3" d="M13.8,38.06l10.28-6.58h0a1,1,0,0,1,1.54.92L24.79,42.92h0A1,1,0,0,0,25.7,44h3a1,1,0,0,0,1-1V42.92L28.89,32.4h0a1,1,0,0,1,1.54-.92l9.42,6h0a1,1,0,0,0,1.38-.3h0l1.42-2.33h0a1,1,0,0,0-.33-1.37l-0.07-.05-10-4.51h0a1,1,0,0,1,0-1.82l10-4.51h0a1,1,0,0,0,.5-1.32l-0.06-.11-1.44-2.35h0a1,1,0,0,0-1.37-.33h0l-9.42,6h0a1,1,0,0,1-1.54-.92L29.75,13h0a1,1,0,0,0-1-1h-3a1,1,0,0,0-1,1v0.08L25.61,23.6h0a1,1,0,0,1-1.54.92l-9.42-6h0a1,1,0,0,0-1.38.3h0l-1.42,2.33h0a1,1,0,0,0,.33,1.37l0.07,0,10,4.51h0a1,1,0,0,1,0,1.82l-10,4.53h0a1,1,0,0,0-.5,1.32l0.06,0.11Z" transform="translate(0 -0.14)"/></g></g></svg>