<?xml version="1.0" encoding="utf-8"?>
<!-- Generator: Adobe Illustrator 19.2.0, SVG Export Plug-In . SVG Version: 6.00 Build 0)  -->
<svg version="1.1" id="Layer_1" xmlns="http://www.w3.org/2000/svg" xmlns:xlink="http://www.w3.org/1999/xlink" x="0px" y="0px"
	 viewBox="0 0 54.5 75.9" style="enable-background:new 0 0 54.5 75.9;" xml:space="preserve">
<style type="text/css">
	.st0{fill:url(#Oval-3_1_);}
	.st1{fill:url(#Shape_1_);stroke:#BABABA;stroke-width:0.5;}
	.st2{fill:#F6BCF3;}
	.st3{opacity:0.45;}
	.st4{fill:#FFFFFF;}
	.st5{fill:#FFFFFF;stroke:#FFFFFF;stroke-width:0.5;}
</style>
<title>Other gradient tapped</title>
<g id="Page-1">
	<g id="Other-gradient">
		<g id="list-icon-development-copy">
			
				<radialGradient id="Oval-3_1_" cx="-247.36" cy="114.2308" r="1.13" gradientTransform="matrix(0 -4 -13.24 0 1540.12 -915.58)" gradientUnits="userSpaceOnUse">
				<stop  offset="0" style="stop-color:#474747"/>
				<stop  offset="1" style="stop-color:#FFFFFF"/>
			</radialGradient>
			<ellipse id="Oval-3" class="st0" cx="27.8" cy="73.9" rx="12.5" ry="2"/>
			
				<linearGradient id="Shape_1_" gradientUnits="userSpaceOnUse" x1="-180.0935" y1="125.0734" x2="-180.0935" y2="124.0734" gradientTransform="matrix(54 0 0 -72 9752.25 9006.4805)">
				<stop  offset="0" style="stop-color:#CE6DD4"/>
				<stop  offset="1" style="stop-color:#84288A"/>
			</linearGradient>
			<path id="Shape" class="st1" d="M0.2,26.9v2.4c0,19.7,24.6,42.9,25,43.1c0.7,0.4,1.5,0.6,2.3,0.5c0.8,0.1,1.5-0.1,2.2-0.5
				c0.6-0.6,24.5-24.9,24.5-43.1v-1.6c0.3-15-11.6-27.2-26.6-27.5S0.5,11.9,0.2,26.9L0.2,26.9z"/>
		</g>
		<path id="Shape-2" class="st2" d="M13.8,37.9l10.3-6.6l0,0c0.5-0.3,1.1-0.2,1.4,0.3c0.1,0.2,0.2,0.4,0.2,0.6l-0.8,10.5l0,0
			c0,0.5,0.4,1,0.9,1.1h3c0.6,0,1-0.4,1-1v-0.1L29,32.2l0,0c0-0.6,0.4-1,0.9-1.1c0.2,0,0.4,0,0.6,0.2l9.4,6l0,0
			c0.5,0.3,1.1,0.2,1.4-0.3l0,0l1.4-2.3l0,0c0.3-0.5,0.1-1.1-0.3-1.4h-0.1l-10-4.5l0,0c-0.5-0.2-0.7-0.8-0.5-1.3
			c0.1-0.2,0.3-0.4,0.5-0.5l10-4.5l0,0c0.5-0.2,0.7-0.8,0.5-1.3L42.7,21l-1.4-2.4l0,0c-0.3-0.5-0.9-0.6-1.4-0.3l0,0l-9.4,6l0,0
			c-0.5,0.3-1.1,0.2-1.4-0.3c-0.1-0.2-0.2-0.4-0.2-0.6l0.8-10.6l0,0c0-0.6-0.4-1-1-1h-3c-0.6,0-1,0.4-1,1v0.1l0.9,10.5l0,0
			c0,0.6-0.4,1-0.9,1.1c-0.2,0-0.4,0-0.6-0.2l-9.4-6l0,0c-0.5-0.3-1.1-0.2-1.4,0.3l0,0L11.9,21l0,0c-0.3,0.5-0.1,1.1,0.3,1.4h0.1
			l10,4.5l0,0c0.5,0.2,0.7,0.8,0.5,1.3c-0.1,0.2-0.3,0.4-0.5,0.5l-10,4.5l0,0c-0.5,0.2-0.7,0.8-0.5,1.3l0.1,0.1L13.8,37.9z"/>
	</g>
</g>
<g id="Page-1-2" class="st3">
	<g id="Other-gradient-2">
		<g id="list-icon-development-copy-2">
			<ellipse id="Oval-3-2" class="st4" cx="27.8" cy="73.9" rx="12.5" ry="2"/>
			<path id="Shape-2-2" class="st5" d="M0.2,26.9v2.4c0,19.7,24.6,42.9,25,43.1c0.7,0.4,1.5,0.6,2.3,0.5c0.8,0.1,1.5-0.1,2.2-0.5
				c0.6-0.6,24.5-24.9,24.5-43.1v-1.6c0.3-15-11.6-27.2-26.6-27.5S0.5,11.9,0.2,26.9L0.2,26.9z"/>
		</g>
	</g>
</g>
</svg>
