<?xml version="1.0" encoding="utf-8"?>
<!-- Generator: Adobe Illustrator 19.2.0, SVG Export Plug-In . SVG Version: 6.00 Build 0)  -->
<svg version="1.1" id="Layer_1" xmlns="http://www.w3.org/2000/svg" xmlns:xlink="http://www.w3.org/1999/xlink" x="0px" y="0px"
	 viewBox="0 0 54.5 75.9" style="enable-background:new 0 0 54.5 75.9;" xml:space="preserve">
<style type="text/css">
	.st0{fill:url(#Oval-3_1_);}
	.st1{fill:url(#Shape_1_);stroke:#BABABA;stroke-width:0.5;}
	.st2{fill:#F8E6C6;}
	.st3{opacity:0.45;}
	.st4{fill:#FFFFFF;}
	.st5{fill:#FFFFFF;stroke:#FFFFFF;stroke-width:0.5;}
</style>
<title>Food gradient tapped</title>
<g id="Page-1">
	<g id="Food-gradient">
		<g id="list-icon-development-copy">
			
				<radialGradient id="Oval-3_1_" cx="-247.36" cy="114.2308" r="1.13" gradientTransform="matrix(0 -4 -13.24 0 1540.12 -915.58)" gradientUnits="userSpaceOnUse">
				<stop  offset="0" style="stop-color:#474747"/>
				<stop  offset="1" style="stop-color:#FFFFFF"/>
			</radialGradient>
			<ellipse id="Oval-3" class="st0" cx="27.8" cy="73.9" rx="12.5" ry="2"/>
			
				<linearGradient id="Shape_1_" gradientUnits="userSpaceOnUse" x1="-180.0935" y1="125.0734" x2="-180.0935" y2="124.0734" gradientTransform="matrix(54 0 0 -72 9752.25 9006.4805)">
				<stop  offset="0" style="stop-color:#D1A301"/>
				<stop  offset="1" style="stop-color:#C16F02"/>
			</linearGradient>
			<path id="Shape" class="st1" d="M0.2,26.9v2.4c0,19.7,24.6,42.9,25,43.1c0.7,0.4,1.5,0.6,2.3,0.5c0.8,0.1,1.5-0.1,2.2-0.5
				c0.6-0.6,24.5-24.9,24.5-43.1v-1.6c0.3-15-11.6-27.2-26.6-27.5S0.5,11.9,0.2,26.9L0.2,26.9z"/>
			<g id="Group">
				<path id="Shape-2" class="st2" d="M40.1,11.9c0.1-0.9-0.5-1.7-1.4-1.9v10.4c-0.1,0.4-0.4,0.6-0.8,0.5c-0.4,0-0.7-0.2-0.8-0.5
					v-9.6c0.1-0.4-0.2-0.8-0.6-0.9c-0.4,0-0.7,0.4-0.6,0.8v9.7c-0.1,0.4-0.4,0.6-0.8,0.5c-0.4,0-0.7-0.2-0.8-0.5v-9.6
					c0.1-0.3-0.1-0.7-0.4-0.8s-0.7,0.1-0.8,0.4c0,0.1,0,0.3,0,0.4v9.7c-0.1,0.4-0.4,0.6-0.8,0.5c-0.4,0-0.7-0.2-0.8-0.5V10
					c-0.9,0.2-1.5,1-1.4,1.9l-0.5,10.9c0.2,1.2,1.3,2.1,2.6,2h2.1l-1.7,20.4c-0.1,1.4,1,2.6,2.3,2.6l0,0H35c1.4-0.1,2.5-1.2,2.5-2.5
					l-1.3-20.6h2c1.3,0.1,2.4-0.9,2.6-2.2L40.1,11.9z"/>
				<path id="Shape-3" class="st2" d="M25.4,17.2c0-3.6-3-7.3-6.6-7.3s-6.6,3.7-6.6,7.3c0,3.2,2.5,7.3,5.6,7.8l-1.4,20.2
					c0,1.4,1.1,2.6,2.5,2.6s2.5-1.1,2.5-2.5L20,25C23,24.5,25.4,20.3,25.4,17.2z"/>
			</g>
		</g>
	</g>
</g>
<g id="Page-1-2" class="st3">
	<g id="Food-gradient-2">
		<g id="list-icon-development-copy-2">
			<ellipse id="Oval-3-2" class="st4" cx="27.8" cy="73.9" rx="12.5" ry="2"/>
			<path id="Shape-2-2" class="st5" d="M0.2,26.9v2.4c0,19.7,24.6,42.9,25,43.1c0.7,0.4,1.5,0.6,2.3,0.5c0.8,0.1,1.5-0.1,2.2-0.5
				c0.6-0.6,24.5-24.9,24.5-43.1v-1.6c0.3-15-11.6-27.2-26.6-27.5S0.5,11.9,0.2,26.9L0.2,26.9z"/>
		</g>
	</g>
</g>
</svg>
