<?xml version="1.0" encoding="utf-8"?>
<!-- Generator: Adobe Illustrator 19.2.0, SVG Export Plug-In . SVG Version: 6.00 Build 0)  -->
<svg version="1.1" id="Layer_1" xmlns="http://www.w3.org/2000/svg" xmlns:xlink="http://www.w3.org/1999/xlink" x="0px" y="0px"
	 viewBox="0 0 54.5 75.9" style="enable-background:new 0 0 54.5 75.9;" xml:space="preserve">
<style type="text/css">
	.st0{fill:url(#Oval-3_1_);}
	.st1{fill:url(#Shape_1_);stroke:#BABABA;stroke-width:0.5;}
	.st2{fill:#C3E6BD;}
	.st3{opacity:0.45;}
	.st4{fill:#FFFFFF;stroke:#FFFFFF;stroke-miterlimit:10;}
	.st5{fill:#FFFFFF;stroke:#FFFFFF;stroke-width:0.5;}
</style>
<title>Development gradient tapped</title>
<g id="Page-1">
	<g id="Development-gradient">
		<g id="list-icon-development">
			
				<radialGradient id="Oval-3_1_" cx="-297.11" cy="17.5638" r="1.13" gradientTransform="matrix(0 -4 13.24 0 -204.84 -1114.5801)" gradientUnits="userSpaceOnUse">
				<stop  offset="0" style="stop-color:#474747"/>
				<stop  offset="1" style="stop-color:#FFFFFF"/>
			</radialGradient>
			<ellipse id="Oval-3" class="st0" cx="27.8" cy="73.9" rx="12.5" ry="2"/>
			
				<linearGradient id="Shape_1_" gradientUnits="userSpaceOnUse" x1="-216.4083" y1="5.6349" x2="-216.4083" y2="4.6349" gradientTransform="matrix(54 0 0 72 11713.25 -332.5195)">
				<stop  offset="0" style="stop-color:#2F855C"/>
				<stop  offset="1" style="stop-color:#53C78D"/>
			</linearGradient>
			<path id="Shape" class="st1" d="M0.2,26.9v2.4c0,19.7,24.6,42.9,25,43.1c0.7,0.4,1.5,0.6,2.3,0.5c0.8,0.1,1.5-0.1,2.2-0.5
				c0.6-0.6,24.5-24.9,24.5-43.1v-1.6c0.3-15-11.6-27.2-26.6-27.5S0.5,11.9,0.2,26.9L0.2,26.9z"/>
			<g id="shovel">
				<path id="Shape-2" class="st2" d="M23.3,36.2l3.4,3.3c0.1,0.1,0.1,0.2,0.1,0.3c0,0,0,0.1-0.1,0.1l-6.3,6.3
					c-2.4,2.3-6,2.8-8.9,1.1c-1.9-1.1-3-3.1-3-5.3c-0.1-2.2,0.7-4.4,2.3-6c2-2,3.9-3.9,5.9-6c0.2-0.2,0.3-0.2,0.6,0
					c1.1,1.2,2.3,2.3,3.4,3.5C21.4,34.6,22.3,35.4,23.3,36.2z"/>
				<path id="Shape-3" class="st2" d="M35.5,19.3c-0.7-0.8-1.2-1.7-1.4-2.8c-0.2-1.5,0.2-3.1,1.3-4.2c0.9-1,2-2,2.9-2.9
					c0.2-0.2,0.3-0.1,0.4,0.1l3.2,3.2l5.9,5.9c0.2,0.2,0.2,0.3,0,0.5l-2.6,2.6c-1.9,2-5.1,2.1-7.1,0.2l0,0l0,0L38,21.8
					c-0.1,0-0.2-0.1-0.2-0.2L35.5,19.3z M41.2,20.6c0.7,0.1,1.5-0.1,2-0.6c0.3-0.4,0.7-0.7,1.1-1.1c0.2-0.2,0.1-0.2,0-0.4L38.8,13
					c-0.1-0.1-0.2-0.1-0.3-0.1c0,0-0.1,0-0.1,0.1l-0.8,0.9c-1,0.9-1.1,2.5-0.2,3.5l0,0l0,0l0.2,0.2l2.3,2.3
					C40.2,20.3,40.7,20.5,41.2,20.6z"/>
				<path id="Shape-4" class="st2" d="M35.5,19.3l2.2,2.2c-0.2,0.3-0.5,0.5-0.7,0.7c-4.6,4.6-9.2,9-13.8,13.6L23,36.1l-2.3-2.3
					c4.8-4.7,9.5-9.5,14.4-14.1C35.2,19.6,35.3,19.4,35.5,19.3z"/>
			</g>
		</g>
	</g>
</g>
<g id="Page-1-2" class="st3">
	<g id="Development-gradient-2">
		<g id="list-icon-development-2">
			<ellipse id="Oval-3-2" class="st4" cx="27.8" cy="73.9" rx="12.5" ry="2"/>
			<path id="Shape-2-2" class="st5" d="M0.2,26.9v2.4c0,19.7,24.6,42.9,25,43.1c0.7,0.4,1.5,0.6,2.3,0.5c0.8,0.1,1.5-0.1,2.2-0.5
				c0.6-0.6,24.5-24.9,24.5-43.1v-1.6c0.3-15-11.6-27.2-26.6-27.5S0.5,11.9,0.2,26.9L0.2,26.9z"/>
		</g>
	</g>
</g>
</svg>
