<?xml version="1.0" encoding="utf-8"?>
<!-- Generator: Adobe Illustrator 19.2.0, SVG Export Plug-In . SVG Version: 6.00 Build 0)  -->
<svg version="1.1" id="Layer_1" xmlns="http://www.w3.org/2000/svg" xmlns:xlink="http://www.w3.org/1999/xlink" x="0px" y="0px"
	 viewBox="0 0 54.5 75.9" style="enable-background:new 0 0 54.5 75.9;" xml:space="preserve">
<style type="text/css">
	.st0{fill:url(#Oval-3_1_);}
	.st1{fill:url(#Shape_1_);stroke:#BABABA;stroke-width:0.5;}
	.st2{fill:#CAE0FD;}
	.st3{opacity:0.45;}
	.st4{fill:#FFFFFF;}
	.st5{fill:#FFFFFF;stroke:#FFFFFF;stroke-width:0.5;}
</style>
<title>Events gradient tapped</title>
<g id="Page-1">
	<g id="Events-gradient">
		<g id="list-icon-development-copy">
			
				<radialGradient id="Oval-3_1_" cx="-297.11" cy="17.5638" r="1.13" gradientTransform="matrix(0 -4 13.24 0 -204.84 -1114.5801)" gradientUnits="userSpaceOnUse">
				<stop  offset="0" style="stop-color:#474747"/>
				<stop  offset="1" style="stop-color:#FFFFFF"/>
			</radialGradient>
			<ellipse id="Oval-3" class="st0" cx="27.8" cy="73.9" rx="12.5" ry="2"/>
			
				<linearGradient id="Shape_1_" gradientUnits="userSpaceOnUse" x1="-216.4083" y1="4.6349" x2="-216.4083" y2="5.6349" gradientTransform="matrix(54 0 0 72 11713.25 -332.5195)">
				<stop  offset="0" style="stop-color:#73A2DF"/>
				<stop  offset="1" style="stop-color:#2853B5"/>
			</linearGradient>
			<path id="Shape" class="st1" d="M0.2,26.9v2.4c0,19.7,24.6,42.9,25,43.1c0.7,0.4,1.5,0.6,2.3,0.5c0.8,0.1,1.5-0.1,2.2-0.5
				c0.6-0.6,24.5-24.9,24.5-43.1v-1.6c0.3-15-11.6-27.2-26.6-27.5S0.5,11.9,0.2,26.9L0.2,26.9z"/>
			<path id="people" class="st2" d="M22.9,19.9c0-3.3,2.1-6,4.7-6s4.7,2.7,4.7,6s-2.1,6-4.7,6S22.9,23.1,22.9,19.9z M38,25.4
				c2.2,0,3.9-2.2,3.9-5s-1.7-5-3.9-5s-3.9,2.2-3.9,5S35.8,25.4,38,25.4L38,25.4z M17.1,25.4c2.2,0,3.9-2.2,3.9-5s-1.7-5-3.9-5
				s-3.9,2.2-3.9,5S14.9,25.4,17.1,25.4L17.1,25.4z M33.6,28.7l-3-2.4c-0.8,0.8-1.9,1.3-3,1.3s-2.2-0.5-3-1.3l-3,2.4
				c-1.2,1.1-1.8,2.7-1.7,4.4V46h15.4V33C35.4,31.3,34.8,29.7,33.6,28.7L33.6,28.7L33.6,28.7z M43.7,27.7l-2.3-1.8
				c-0.7,0.8-1.6,1.2-2.7,1.2c-1,0-2-0.5-2.7-1.2l-1.4,1l0.1,0.1c1.6,1.6,2.5,3.7,2.4,6v10.4h8.1v-12C45.4,30,44.8,28.6,43.7,27.7
				L43.7,27.7L43.7,27.7z M20.7,27l0.1-0.1l-1.4-1.1c-0.7,0.8-1.7,1.2-2.7,1.2s-2-0.5-2.7-1.2l-2.3,1.9c-1,0.9-1.6,2.3-1.5,3.7v12.1
				h8.1V32.9C18.3,30.7,19.1,28.5,20.7,27L20.7,27L20.7,27z"/>
		</g>
	</g>
</g>
<g id="Page-1-2" class="st3">
	<g id="Events-gradient-2">
		<g id="list-icon-development-copy-2">
			<ellipse id="Oval-3-2" class="st4" cx="27.8" cy="73.9" rx="12.5" ry="2"/>
			<path id="Shape-2" class="st5" d="M0.2,26.9v2.4c0,19.7,24.6,42.9,25,43.1c0.7,0.4,1.5,0.6,2.3,0.5c0.8,0.1,1.5-0.1,2.2-0.5
				c0.6-0.6,24.5-24.9,24.5-43.1v-1.6c0.3-15-11.6-27.2-26.6-27.5S0.5,11.9,0.2,26.9L0.2,26.9z"/>
		</g>
	</g>
</g>
</svg>
