<?xml version="1.0" encoding="utf-8"?>
<!-- Generator: Adobe Illustrator 19.2.0, SVG Export Plug-In . SVG Version: 6.00 Build 0)  -->
<svg version="1.1" id="Layer_1" xmlns="http://www.w3.org/2000/svg" xmlns:xlink="http://www.w3.org/1999/xlink" x="0px" y="0px"
	 viewBox="0 0 54.5 75.9" style="enable-background:new 0 0 54.5 75.9;" xml:space="preserve">
<style type="text/css">
	.st0{fill:url(#Oval-3_1_);}
	.st1{fill:url(#Shape_1_);stroke:#BABABA;stroke-width:0.5;}
	.st2{fill:#EDC3C3;}
	.st3{opacity:0.45;}
	.st4{fill:#FFFFFF;}
	.st5{fill:#FFFFFF;stroke:#FFFFFF;stroke-width:0.5;}
</style>
<title>Safety gradient tapped</title>
<g id="Page-1">
	<g id="Safety-gradient">
		<g id="list-icon-development-copy">
			
				<radialGradient id="Oval-3_1_" cx="-197.61" cy="11.9746" r="1.13" gradientTransform="matrix(0 -4 13.24 0 -130.84 -716.58)" gradientUnits="userSpaceOnUse">
				<stop  offset="0" style="stop-color:#474747"/>
				<stop  offset="1" style="stop-color:#FFFFFF"/>
			</radialGradient>
			<ellipse id="Oval-3" class="st0" cx="27.8" cy="73.9" rx="12.5" ry="2"/>
			
				<linearGradient id="Shape_1_" gradientUnits="userSpaceOnUse" x1="-143.7778" y1="3.2183" x2="-143.7778" y2="4.2183" gradientTransform="matrix(54 0 0 72 7791.25 -230.5195)">
				<stop  offset="0" style="stop-color:#DC6180"/>
				<stop  offset="1" style="stop-color:#BC2727"/>
			</linearGradient>
			<path id="Shape" class="st1" d="M0.2,26.9v2.4c0,19.7,24.6,42.9,25,43.1c0.7,0.4,1.5,0.6,2.3,0.5c0.8,0.1,1.5-0.1,2.2-0.5
				c0.6-0.6,24.5-24.9,24.5-43.1v-1.6C54.5,12.7,42.6,0.5,27.6,0.2S0.5,11.9,0.2,26.9C0.2,26.9,0.2,26.9,0.2,26.9z"/>
			<g id="Group">
				<path id="Shape-2" class="st2" d="M16.1,42.9L15,46.5h24l-1.1-3.6H16.1z M19.9,45.8H16l0.8-2.3h5.6
					C21.5,44.3,20.7,45.1,19.9,45.8z"/>
				<path id="Shape-3" class="st2" d="M27.2,20.9c-5-0.1-9.1,4-9.2,9c0,0,0,0,0,0v11h18.5v-11c0-5-4.1-9-9.1-9c0,0,0,0,0,0H27.2z
					 M34.7,30c0,0.4-0.3,0.7-0.8,0.8c-0.4,0-0.7-0.3-0.7-0.7c0,0,0,0,0,0l0,0c0-3.1-2.6-5.7-5.8-5.6c0,0,0,0,0,0h-0.1
					c-0.4,0-0.7-0.3-0.7-0.7c0,0,0,0,0,0l0,0c0-0.4,0.3-0.8,0.8-0.8h0.1C31.4,22.8,34.7,26,34.7,30z"/>
				<path id="Shape-4" class="st2" d="M15.8,26.6c0.2-0.8-0.4-1.6-1.2-1.8l0,0L10,23.9c-0.8-0.2-1.6,0.3-1.7,1.1c0,0,0,0,0,0l0,0
					v0.6c0.1,0.6,0.6,1.1,1.3,1.3l4.5,0.9C14.8,27.9,15.6,27.4,15.8,26.6C15.7,26.6,15.7,26.6,15.8,26.6L15.8,26.6L15.8,26.6
					L15.8,26.6L15.8,26.6z"/>
				<path id="Shape-5" class="st2" d="M14.8,16.3l2.9,3.5c0.5,0.6,1.4,0.8,2,0.3c0,0,0,0,0,0l0,0l0.1-0.1c0.7-0.5,0.8-1.5,0.3-2.2
					l-2.9-3.5c-0.6-0.7-1.5-0.7-2.2-0.2c-0.4,0.3-0.6,0.8-0.5,1.4C14.5,15.8,14.6,16,14.8,16.3z"/>
				<path id="Shape-6" class="st2" d="M25.7,16.4c0.1,0.7,0.7,1.3,1.5,1.3c0.8,0,1.5-0.6,1.6-1.4c0,0,0,0,0,0l0,0v-4.6
					c0-0.8-0.7-1.5-1.6-1.6c-0.8,0-1.5,0.7-1.6,1.5v4.5C25.6,16.2,25.6,16.3,25.7,16.4z"/>
				<path id="Shape-7" class="st2" d="M34.4,20.4c0.7,0.6,1.6,0.5,2.2-0.1l3-3.4c0.6-0.6,0.5-1.6-0.1-2.2c-0.7-0.6-1.6-0.5-2.2,0.1
					l-3,3.5c-0.3,0.3-0.4,0.8-0.4,1.2C33.9,19.8,34.1,20.1,34.4,20.4z"/>
				<path id="Shape-8" class="st2" d="M45.8,26c-0.1-0.9-0.9-1.5-1.8-1.3c0,0,0,0,0,0l-4.6,0.7c-0.8,0.1-1.4,0.7-1.3,1.5
					c0,0.1,0,0.1,0,0.2c0.1,0.8,0.9,1.4,1.8,1.3l4.6-0.7C45.3,27.5,45.8,26.8,45.8,26z"/>
			</g>
		</g>
	</g>
</g>
<g id="Page-1-2" class="st3">
	<g id="Safety-gradient-2">
		<g id="list-icon-development-copy-2">
			<ellipse id="Oval-3-2" class="st4" cx="27.8" cy="73.9" rx="12.5" ry="2"/>
			<path id="Shape-2-2" class="st5" d="M0.2,26.9v2.4c0,19.7,24.6,42.9,25,43.1c0.7,0.4,1.5,0.6,2.3,0.5c0.8,0.1,1.5-0.1,2.2-0.5
				c0.6-0.6,24.5-24.9,24.5-43.1v-1.6C54.5,12.7,42.6,0.5,27.6,0.2S0.5,11.9,0.2,26.9C0.2,26.9,0.2,26.9,0.2,26.9z"/>
		</g>
	</g>
</g>
</svg>
