<?xml version="1.0" encoding="utf-8"?>
<!-- Generator: Adobe Illustrator 19.2.0, SVG Export Plug-In . SVG Version: 6.00 Build 0)  -->
<svg version="1.1" id="Layer_2" xmlns="http://www.w3.org/2000/svg" xmlns:xlink="http://www.w3.org/1999/xlink" x="0px" y="0px"
	 viewBox="0 0 54 74.6" style="enable-background:new 0 0 54 74.6;" xml:space="preserve">
<style type="text/css">
	.st0{opacity:0.8;fill:url(#SVGID_1_);enable-background:new    ;}
	.st1{fill:#FFFFFF;}
	.st2{fill:#DD3131;}
</style>
<radialGradient id="SVGID_1_" cx="27.2" cy="-40.1007" r="11.7417" gradientTransform="matrix(1 0 0 -0.1522 0 66.6814)" gradientUnits="userSpaceOnUse">
	<stop  offset="0" style="stop-color:#000000"/>
	<stop  offset="0.499" style="stop-color:#868686"/>
	<stop  offset="0.8443" style="stop-color:#DDDDDD"/>
	<stop  offset="1" style="stop-color:#FFFFFF"/>
</radialGradient>
<ellipse class="st0" cx="27.2" cy="72.8" rx="11.7" ry="1.8"/>
<g>
	<g>
		<g>
			<g>
				<path class="st1" d="M54,27C54,12.1,41.9,0,27.1,0C12.5,0,0.6,11.7,0.2,26.2H0.1C0.1,27,0,27.8,0,28.6c0,19.9,24.7,43.2,25,43.5
					c0.7,0.6,4,0.6,4.5,0S54,47,54,28.6c0-0.4,0-0.7,0-1.1C54,27.3,54,27.2,54,27z"/>
			</g>
			<g>
				<g>
					<path d="M27.1,0.8c14.4,0,26.1,11.8,26.1,26.2v0.5v1.1c0,15.8-18.4,36.7-24,42.7c-0.1,0.2-0.2,0.3-0.3,0.3
						c-0.1,0.1-0.7,0.2-1.6,0.2c-1.1,0-1.7-0.2-1.8-0.3l0,0C22.9,69.1,0.8,47.2,0.8,28.6c0-0.4,0-0.8,0-1.2c0-0.2,0-0.3,0-0.5h0.1
						l0-0.7c0.2-6.8,3-13.2,7.9-18C13.8,3.4,20.2,0.8,27.1,0.8 M27.1,0C12.5,0,0.6,11.7,0.2,26.2H0.1C0.1,27,0,27.8,0,28.6
						c0,19.9,24.7,43.2,25,43.5c0.3,0.3,1.3,0.4,2.3,0.4c1,0,1.9-0.1,2.2-0.4C30,71.5,54,47,54,28.6c0-0.4,0-0.7,0-1.1
						c0-0.2,0-0.3,0-0.5C54,12.1,41.9,0,27.1,0L27.1,0z"/>
				</g>
			</g>
		</g>
	</g>
</g>
<g>
	<g>
		<g>
			<path class="st2" d="M17.9,31.4l-1,3h20.7l-1-3H17.9z M21.1,33.8h-3.4l0.7-1.9h4.7C22.5,32.6,21.8,33.2,21.1,33.8z"/>
			<path class="st2" d="M27.1,13.1c-4.6,0-8.3,3.5-8.3,7.9v9.7h16.6V21C35.4,16.7,31.7,13.1,27.1,13.1
				C27.1,13.1,27.1,13.1,27.1,13.1z M33.9,21.2c0,0.4-0.3,0.7-0.7,0.7s-0.7-0.3-0.7-0.7c0-2.7-2.3-4.9-5.2-4.9h-0.1
				c-0.4,0-0.7-0.3-0.7-0.7c0-0.4,0.3-0.7,0.7-0.7h0.1C31,14.9,33.9,17.7,33.9,21.2z"/>
			<path class="st2" d="M17.6,17.8c0.1-0.7-0.3-1.4-1.1-1.5l-3.9-0.7c-0.7-0.1-1.4,0.3-1.6,1c0,0.2,0,0.3,0,0.4
				c0.1,0.5,0.5,1,1.1,1.1l3.9,0.7C16.7,18.9,17.4,18.5,17.6,17.8z"/>
			<path class="st2" d="M16.7,9.2l2.5,3c0.5,0.6,1.3,0.6,1.9,0.2c0.6-0.4,0.7-1.2,0.2-1.8l-2.5-3C18.3,7,17.5,7,16.9,7.4
				c-0.4,0.3-0.6,0.8-0.5,1.2C16.4,8.8,16.5,9,16.7,9.2z"/>
			<path class="st2" d="M26.1,9.2c0.1,0.6,0.6,1.1,1.3,1.1s1.4-0.5,1.4-1.2V5.3c0-0.7-0.6-1.3-1.3-1.3s-1.4,0.5-1.4,1.2V9
				C26.1,9.1,26.1,9.2,26.1,9.2z"/>
			<path class="st2" d="M33.6,12.6c0.6,0.5,1.4,0.4,1.9-0.1l2.6-2.8c0.5-0.5,0.4-1.3-0.1-1.8c-0.6-0.5-1.4-0.4-1.9,0.1l-2.6,2.8
				c-0.3,0.3-0.4,0.7-0.3,1C33.2,12.1,33.4,12.4,33.6,12.6z"/>
			<path class="st2" d="M43.4,17.3c-0.1-0.7-0.8-1.2-1.5-1.1L38,16.8c-0.7,0.1-1.2,0.8-1.1,1.5s0.8,1.2,1.5,1.1l3.9-0.6
				C43,18.6,43.5,18,43.4,17.3z"/>
		</g>
	</g>
</g>
</svg>
