<svg id="Layer_1" data-name="Layer 1" xmlns="http://www.w3.org/2000/svg" xmlns:xlink="http://www.w3.org/1999/xlink" viewBox="0 0 54.5 75.86"><defs><style>.cls-1{fill:url(#radial-gradient);}.cls-2{stroke:#454545;stroke-width:0.5px;fill:url(#linear-gradient);}.cls-3{fill:#2951b0;}</style><radialGradient id="radial-gradient" cx="-98.11" cy="6.39" r="1.13" gradientTransform="translate(-56.83 -318.58) rotate(-90) scale(4 13.24)" gradientUnits="userSpaceOnUse"><stop offset="0" stop-color="#474747"/><stop offset="1" stop-color="#fff"/></radialGradient><linearGradient id="linear-gradient" x1="-71.15" y1="1.8" x2="-71.15" y2="2.8" gradientTransform="translate(3869.25 -128.38) scale(54 72)" gradientUnits="userSpaceOnUse"><stop offset="0" stop-color="#a5c2ed"/><stop offset="1" stop-color="#fff"/></linearGradient></defs><title>Events tap</title><g id="Page-1"><g id="Events-tap"><g id="list-icon-development-copy"><ellipse id="Oval-3" class="cls-1" cx="27.75" cy="73.86" rx="12.5" ry="2"/><path id="Shape" class="cls-2" d="M0.25,27v2.38c0,19.72,24.65,42.93,25,43.12a4.12,4.12,0,0,0,2.3.5,3.73,3.73,0,0,0,2.2-.5c0.64-.59,24.5-24.89,24.5-43.14V27.78A27,27,0,1,0,.25,27Z" transform="translate(0 -0.14)"/></g><path id="people" class="cls-3" d="M22.88,20c0-3.28,2.1-6,4.68-6s4.69,2.67,4.69,6-2.1,6-4.68,6S22.88,23.24,22.88,20ZM38,25.5c2.16,0,3.9-2.21,3.9-5s-1.74-5-3.9-5-3.9,2.21-3.9,5,1.74,5,3.9,5v0Zm-20.94,0c2.16,0,3.9-2.21,3.9-5s-1.74-5-3.9-5-3.9,2.21-3.9,5,1.74,5,3.9,5v0Zm16.52,3.33-3-2.36a4,4,0,0,1-3,1.31,4.5,4.5,0,0,1-3-1.31l-3,2.36a5.56,5.56,0,0,0-1.74,4.37V46.08H35.25v-13a5,5,0,0,0-1.64-4.3v0Zm10.16-1L41.44,26a3.76,3.76,0,0,1-2.67,1.25A3.57,3.57,0,0,1,36.1,26l-1.43,1,0.06,0.09a7.75,7.75,0,0,1,2.39,6v10.4h8.13v-12a4.5,4.5,0,0,0-1.48-3.7v0Zm-23-.72L20.83,27l-1.42-1.08a3.76,3.76,0,0,1-2.67,1.25,3.67,3.67,0,0,1-2.67-1.25L11.74,27.8a4.5,4.5,0,0,0-1.49,3.67v12.1h8.13V33.08a7.75,7.75,0,0,1,2.39-6v0Z" transform="translate(0 -0.14)"/></g></g></svg>