<?xml version="1.0" encoding="utf-8"?>
<!-- Generator: Adobe Illustrator 19.2.0, SVG Export Plug-In . SVG Version: 6.00 Build 0)  -->
<svg version="1.1" id="Layer_2" xmlns="http://www.w3.org/2000/svg" xmlns:xlink="http://www.w3.org/1999/xlink" x="0px" y="0px"
	 viewBox="0 0 54.1 74.6" style="enable-background:new 0 0 54.1 74.6;" xml:space="preserve">
<style type="text/css">
	.st0{opacity:0.8;fill:url(#SVGID_1_);enable-background:new    ;}
	.st1{fill:#FFFFFF;}
	.st2{fill:#303030;}
	.st3{fill:#FC5E3F;}
	.st4{opacity:0.1;}
	.st5{fill:#272425;}
	.st6{opacity:0.2;fill:#272425;enable-background:new    ;}
</style>
<radialGradient id="SVGID_1_" cx="27.3593" cy="-57.1029" r="11.7365" gradientTransform="matrix(1 0 0 0.1522 0 81.5054)" gradientUnits="userSpaceOnUse">
	<stop  offset="0" style="stop-color:#000000"/>
	<stop  offset="0.499" style="stop-color:#868686"/>
	<stop  offset="0.8443" style="stop-color:#DDDDDD"/>
	<stop  offset="1" style="stop-color:#FFFFFF"/>
</radialGradient>
<ellipse class="st0" cx="27.4" cy="72.8" rx="11.7" ry="1.8"/>
<g>
	<g>
		<path class="st1" d="M27.3,72.2c-1.1,0-1.9-0.2-2.1-0.4C25,71.6,0.4,48.4,0.4,28.6c0-0.4,0-0.8,0-1.2c0-0.3,0-0.6,0-0.8h0.1v-0.4
			C1,12,12.9,0.4,27.1,0.4c14.7,0,26.6,11.9,26.6,26.6v1.6c0,18.4-24.2,43-24.5,43.2C29.1,72,28.5,72.2,27.3,72.2z"/>
		<path class="st2" d="M27.1,0.8c14.5,0,26.2,11.8,26.2,26.2v0.5v1.1c0,18.1-24.1,42.7-24.3,42.9l0,0l0,0c-0.1,0.1-0.7,0.2-1.6,0.2
			c-1.1,0-1.7-0.2-1.8-0.3l0,0l0,0c-0.7-0.6-6.8-6.6-12.6-14.5C7.3,49.6,0.8,38.6,0.8,28.6c0-0.4,0-0.8,0-1.2c0-0.2,0-0.3,0-0.5h0.1
			v-0.7c0.2-6.8,3-13.2,7.9-18C13.8,3.4,20.2,0.8,27.1,0.8 M27.1,0C12.5,0,0.6,11.7,0.2,26.2H0.1C0.1,27,0,27.8,0,28.6
			c0,19.9,24.7,43.3,25,43.5c0.3,0.3,1.3,0.4,2.3,0.4s1.9-0.1,2.2-0.4c0.7-0.6,24.6-25.1,24.6-43.5c0-0.4,0-0.7,0-1.1
			c0-0.2,0-0.3,0-0.5C54.1,12.1,42,0,27.1,0L27.1,0z"/>
	</g>
</g>
<g>
	<g>
		<g>
			<path class="st3" d="M38,5.3c0-0.8-0.3-1.4-1.1-1.6v8.1c0,0.3-0.3,0.5-0.6,0.5s-0.6-0.2-0.6-0.5V4.4c0,0,0,0,0-0.1
				c0-0.4-0.2-0.7-0.5-0.7s-0.5,0.3-0.5,0.7l0,0l0,0v7.4c0,0.3-0.3,0.5-0.6,0.5l0,0l0,0l0,0l0,0c-0.3,0-0.6-0.2-0.6-0.5V4.3l0,0l0,0
				c0-0.4-0.2-0.7-0.5-0.7s-0.5,0.3-0.5,0.7c0,0,0,0,0,0.1v7.4c0,0.3-0.3,0.5-0.6,0.5c-0.3,0-0.6-0.2-0.6-0.5V3.7
				c-0.7,0.2-1.1,0.8-1.1,1.6l-0.4,8.5c0,0.9,0.9,1.7,2,1.7h1.6L32.1,34l0,0v0.1c0,1.2,0.8,2.2,1.9,2.2l0,0l0,0l0,0l0,0
				c1,0,1.9-1,1.9-2.2V34l0,0l-1.1-18.6h1.6c1.1,0,2-0.7,2-1.7L38,5.3z"/>
		</g>
		<g class="st4">
			<polygon class="st5" points="33.2,15.7 34.8,15.7 34.9,17.1 33.2,17.1 			"/>
		</g>
	</g>
	<g>
		<path class="st3" d="M25.9,9.8c0-3.1-2.3-6.3-5.1-6.3s-5.1,3.2-5.1,6.3c0,2.8,1.9,5.1,4.3,5.5L18.9,34l0,0v0.1
			c0,1.2,0.9,2.2,1.9,2.2c1.1,0,1.9-1,1.9-2.2V34l0,0l-1.1-18.7C24,14.9,25.9,12.6,25.9,9.8z"/>
	</g>
	<path class="st6" d="M25.1,9.8c0,2.8-1.9,4.6-4.3,4.6c-2.3,0-4.2-1.8-4.2-4.6s1.8-5.5,4.1-5.5C23.1,4.3,25.1,7,25.1,9.8z"/>
</g>
</svg>
