<svg id="Layer_1" data-name="Layer 1" xmlns="http://www.w3.org/2000/svg" xmlns:xlink="http://www.w3.org/1999/xlink" viewBox="0 0 54.5 75.86"><defs><style>.cls-1{fill:url(#radial-gradient);}.cls-2{stroke:#454545;stroke-width:0.5px;fill:url(#linear-gradient);}.cls-3{fill:#b96c01;}</style><radialGradient id="radial-gradient" cx="-98.11" cy="6.39" r="1.13" gradientTransform="translate(-56.84 -318.58) rotate(-90) scale(4 13.24)" gradientUnits="userSpaceOnUse"><stop offset="0" stop-color="#474747"/><stop offset="1" stop-color="#fff"/></radialGradient><linearGradient id="linear-gradient" x1="-71.15" y1="1.8" x2="-71.15" y2="2.8" gradientTransform="translate(3869.25 -128.38) scale(54 72)" gradientUnits="userSpaceOnUse"><stop offset="0" stop-color="#f5e39c"/><stop offset="1" stop-color="#fff"/></linearGradient></defs><title>Food tap</title><g id="Page-1"><g id="Food-tap"><g id="list-icon-development-copy"><ellipse id="Oval-3" class="cls-1" cx="27.75" cy="73.86" rx="12.5" ry="2"/><path id="Shape" class="cls-2" d="M0.25,27v2.38c0,19.72,24.65,42.93,25,43.12a4.12,4.12,0,0,0,2.3.5,3.73,3.73,0,0,0,2.2-.5c0.64-.59,24.5-24.89,24.5-43.14V27.78A27,27,0,1,0,.25,27Z" transform="translate(0 -0.14)"/></g><g id="Group"><path id="Shape-2" class="cls-3" d="M40.1,12a1.8,1.8,0,0,0-1.39-1.9V20.52a0.68,0.68,0,0,1-.79.54,0.76,0.76,0,0,1-.79-0.54V10.91a0.8,0.8,0,0,0-.6-0.91,0.69,0.69,0,0,0-.61.76v9.68a0.68,0.68,0,0,1-.79.54,0.76,0.76,0,0,1-.79-0.54V10.82a0.63,0.63,0,1,0-1.19,0v9.71a0.68,0.68,0,0,1-.79.54,0.76,0.76,0,0,1-.79-0.54V10.09A1.83,1.83,0,0,0,30.17,12l-0.5,10.89a2.38,2.38,0,0,0,2.58,2h2.09L32.65,45.37A2.49,2.49,0,0,0,35,48h0.13a2.59,2.59,0,0,0,2.48-2.54l-1.3-20.58h2a2.43,2.43,0,0,0,2.57-2.18Z" transform="translate(0 -0.14)"/><path id="Shape-3" class="cls-3" d="M25.35,17.31c0-3.61-3-7.31-6.55-7.31s-6.55,3.7-6.55,7.31c0,3.25,2.54,7.29,5.61,7.83L16.42,45.38A2.61,2.61,0,0,0,18.9,48a2.52,2.52,0,0,0,2.48-2.53L20,25.14C23,24.6,25.35,20.47,25.35,17.31Z" transform="translate(0 -0.14)"/></g></g></g></svg>