<?xml version="1.0" encoding="utf-8"?>
<!-- Generator: Adobe Illustrator 19.2.0, SVG Export Plug-In . SVG Version: 6.00 Build 0)  -->
<svg version="1.1" id="Layer_2" xmlns="http://www.w3.org/2000/svg" xmlns:xlink="http://www.w3.org/1999/xlink" x="0px" y="0px"
	 viewBox="0 0 114 92" style="enable-background:new 0 0 114 92;" xml:space="preserve">
<style type="text/css">
	.st0{opacity:0.8;fill:url(#SVGID_1_);enable-background:new    ;}
	.st1{fill:#FFFFFF;stroke:#303030;stroke-width:0.75;stroke-miterlimit:10;}
	.st2{fill:#FC6738;}
	.st3{opacity:0.1;}
	.st4{fill:#272425;}
	.st5{opacity:0.2;fill:#272425;enable-background:new    ;}
</style>
<radialGradient id="SVGID_1_" cx="57.2593" cy="-70.8435" r="11.7366" gradientTransform="matrix(1 0 0 0.1522 0 92.1967)" gradientUnits="userSpaceOnUse">
	<stop  offset="0" style="stop-color:#000000"/>
	<stop  offset="0.499" style="stop-color:#868686"/>
	<stop  offset="0.8443" style="stop-color:#DDDDDD"/>
	<stop  offset="1" style="stop-color:#FFFFFF"/>
</radialGradient>
<ellipse class="st0" cx="57.3" cy="81.4" rx="11.7" ry="1.8"/>
<g>
	<path class="st1" d="M84,35.6c0-14.9-12.1-27-27-27c-14.6,0-26.5,11.7-26.9,26.2H30c0,0.8-0.1,1.6-0.1,2.4
		c0,19.9,24.7,43.3,25,43.5c0.7,0.6,4,0.6,4.5,0C60.1,80.1,84,55.6,84,37.2c0-0.4,0-0.7,0-1.1C84,35.9,84,35.8,84,35.6z"/>
</g>
<g>
	<g>
		<g>
			<path class="st2" d="M67.9,13.9c0-0.8-0.3-1.4-1.1-1.6v8.1c0,0.3-0.3,0.5-0.6,0.5c-0.3,0-0.6-0.2-0.6-0.5V13c0,0,0,0,0-0.1
				c0-0.4-0.2-0.7-0.5-0.7s-0.5,0.3-0.5,0.7l0,0l0,0v7.4c0,0.3-0.3,0.5-0.6,0.5l0,0l0,0l0,0l0,0c-0.3,0-0.6-0.2-0.6-0.5v-7.4l0,0
				l0,0c0-0.4-0.2-0.7-0.5-0.7s-0.5,0.3-0.5,0.7c0,0,0,0,0,0.1v7.4c0,0.3-0.3,0.5-0.6,0.5s-0.6-0.2-0.6-0.5v-8.1
				c-0.7,0.2-1.1,0.8-1.1,1.6l-0.4,8.5c0,0.9,0.9,1.7,2,1.7h1.6L62,42.6l0,0v0.1c0,1.2,0.8,2.2,1.9,2.2l0,0l0,0l0,0l0,0
				c1,0,1.9-1,1.9-2.2v-0.1l0,0L64.7,24h1.6c1.1,0,2-0.7,2-1.7L67.9,13.9z"/>
		</g>
		<g class="st3">
			<polygon class="st4" points="63.1,24.3 64.7,24.3 64.8,25.7 63.1,25.7 			"/>
		</g>
	</g>
	<g>
		<path class="st2" d="M55.8,18.4c0-3.1-2.3-6.3-5.1-6.3s-5.1,3.2-5.1,6.3c0,2.8,1.9,5.1,4.3,5.5l-1.1,18.7l0,0v0.1
			c0,1.2,0.9,2.2,1.9,2.2c1.1,0,1.9-1,1.9-2.2v-0.1l0,0l-1.1-18.7C53.9,23.5,55.8,21.2,55.8,18.4z"/>
	</g>
	<path class="st5" d="M54.8,18.7c0,2.8-1.9,4.6-4.3,4.6c-2.3,0-4.2-1.8-4.2-4.6s1.8-5.5,4.1-5.5C52.8,13.2,54.8,15.9,54.8,18.7z"/>
</g>
</svg>
