<?xml version="1.0" encoding="utf-8"?>
<!-- Generator: Adobe Illustrator 19.2.0, SVG Export Plug-In . SVG Version: 6.00 Build 0)  -->
<svg version="1.1" id="Layer_2" xmlns="http://www.w3.org/2000/svg" xmlns:xlink="http://www.w3.org/1999/xlink" x="0px" y="0px"
	 viewBox="0 0 114 92" style="enable-background:new 0 0 114 92;" xml:space="preserve">
<style type="text/css">
	.st0{opacity:0.8;fill:url(#SVGID_1_);enable-background:new    ;}
	.st1{fill:#FFFFFF;stroke:#303030;stroke-width:0.75;stroke-miterlimit:10;}
	.st2{fill:#5AAF00;}
</style>
<radialGradient id="SVGID_1_" cx="57.2486" cy="42.109" r="11.7384" gradientTransform="matrix(1 0 0 -0.1522 0 87.7639)" gradientUnits="userSpaceOnUse">
	<stop  offset="0" style="stop-color:#000000"/>
	<stop  offset="0.499" style="stop-color:#868686"/>
	<stop  offset="0.8443" style="stop-color:#DDDDDD"/>
	<stop  offset="1" style="stop-color:#FFFFFF"/>
</radialGradient>
<ellipse class="st0" cx="57.2" cy="81.4" rx="11.7" ry="1.8"/>
<g>
	<path class="st1" d="M84,35.6c0-14.9-12.1-27-27-27c-14.6,0-26.5,11.7-26.9,26.2H30c0,0.8-0.1,1.6-0.1,2.4
		c0,19.9,24.7,43.3,25,43.5c0.7,0.6,4,0.6,4.5,0C60.1,80.1,84,55.6,84,37.2c0-0.4,0-0.7,0-1.1C84,35.9,84,35.8,84,35.6z"/>
</g>
<g id="xTqf4Q.tif">
	<g>
		<g>
			<path class="st2" d="M52.3,34c0.9,0.9,1.8,1.8,2.8,2.8c0.1,0.1,0.1,0.2,0,0.3c-1.7,1.7-3.4,3.5-5.1,5.2c-1.9,1.9-5,2.3-7.3,0.9
				c-1.6-1-2.4-2.5-2.5-4.3c-0.1-1.9,0.5-3.6,1.9-4.9c1.6-1.6,3.2-3.2,4.8-4.8c0.2-0.2,0.3-0.2,0.4,0c0.9,1,1.9,1.9,2.8,2.9
				c0,0.1-0.1,0.2-0.2,0.3c-0.3,0.3-0.7,0.7-1,1c-0.8,0.8-1.7,1.7-2.5,2.5c-0.5,0.5-0.5,1.2,0,1.7c0.2,0.2,0.3,0.3,0.5,0.5
				c0.1,0.1,0.2,0.2,0.3,0.2c0.5,0.1,1,0,1.4-0.4c1.1-1.1,2.3-2.3,3.4-3.4C52.1,34.1,52.2,34,52.3,34z"/>
			<path class="st2" d="M62.3,20.1c-0.6-0.7-1-1.4-1.1-2.3c-0.2-1.3,0.1-2.4,1-3.4c0.8-0.8,1.6-1.6,2.3-2.4c0.2-0.2,0.2,0,0.3,0
				c0.9,0.9,1.7,1.7,2.6,2.6c1.6,1.6,3.2,3.2,4.8,4.8c0.2,0.1,0.1,0.2,0,0.4c-0.7,0.7-1.4,1.4-2.1,2.1c-1.6,1.7-4.1,1.7-5.8,0.1
				c-0.1-0.1-0.1-0.1-0.2-0.2C63.5,21.3,62.9,20.7,62.3,20.1z M66.9,21.2c0.7,0,1.2-0.2,1.6-0.5c0.3-0.3,0.6-0.6,0.9-0.9
				c0.1-0.1,0-0.2,0-0.3c-1.5-1.5-3-3-4.5-4.5c-0.1-0.1-0.2-0.1-0.3,0c-0.2,0.2-0.4,0.5-0.7,0.7c-0.9,0.9-0.9,2.1,0,3
				c0.6,0.6,1.2,1.3,1.9,1.9C66.1,21,66.6,21.2,66.9,21.2z"/>
			<path class="st2" d="M62.3,20.1c0.6,0.6,1.2,1.2,1.8,1.8c-0.2,0.2-0.4,0.4-0.6,0.6c-3.7,3.7-7.4,7.4-11,11.1
				c-0.1,0.1-0.1,0.1-0.2,0.2c-0.6-0.6-1.2-1.2-1.8-1.8c3.8-3.9,7.7-7.7,11.5-11.6C62.1,20.3,62.2,20.2,62.3,20.1z"/>
			<path class="st2" d="M50.5,32c0.6,0.6,1.2,1.2,1.8,1.8c0,0.1,0,0.1,0.1,0.2c-0.1,0-0.2,0.1-0.3,0.2c-1.1,1.1-2.2,2.3-3.4,3.4
				c-0.4,0.4-0.8,0.5-1.4,0.4c-0.1,0-0.2-0.1-0.3-0.2c-0.2-0.2-0.3-0.3-0.5-0.5c-0.5-0.5-0.5-1.2,0-1.7c0.8-0.8,1.7-1.6,2.5-2.5
				c0.3-0.3,0.7-0.7,1-1c0.1-0.1,0.2-0.1,0.2-0.3C50.3,31.8,50.4,31.9,50.5,32z"/>
		</g>
	</g>
</g>
</svg>
