<?xml version="1.0" encoding="utf-8"?>
<!-- Generator: Adobe Illustrator 19.2.0, SVG Export Plug-In . SVG Version: 6.00 Build 0)  -->
<svg version="1.1" id="Layer_2" xmlns="http://www.w3.org/2000/svg" xmlns:xlink="http://www.w3.org/1999/xlink" x="0px" y="0px"
	 viewBox="0 0 54 74.6" style="enable-background:new 0 0 54 74.6;" xml:space="preserve">
<style type="text/css">
	.st0{opacity:0.8;fill:url(#SVGID_1_);enable-background:new    ;}
	.st1{fill:#FFFFFF;}
	.st2{fill:#303030;}
	.st3{fill:#EDA05A;}
</style>
<radialGradient id="SVGID_1_" cx="27.2" cy="18.1964" r="11.7397" gradientTransform="matrix(1 0 0 0.1522 0 70.0792)" gradientUnits="userSpaceOnUse">
	<stop  offset="0" style="stop-color:#000000"/>
	<stop  offset="0.499" style="stop-color:#868686"/>
	<stop  offset="0.8443" style="stop-color:#DDDDDD"/>
	<stop  offset="1" style="stop-color:#FFFFFF"/>
</radialGradient>
<ellipse class="st0" cx="27.2" cy="72.8" rx="11.7" ry="1.8"/>
<g>
	<g>
		<g>
			<g>
				<path class="st1" d="M54,27C54,12.1,41.9,0,27.1,0C12.5,0,0.6,11.7,0.2,26.2H0.1C0.1,27,0,27.8,0,28.6c0,19.9,24.7,43.2,25,43.5
					c0.7,0.6,4,0.6,4.5,0S54,47,54,28.6c0-0.4,0-0.7,0-1.1C54,27.3,54,27.2,54,27z"/>
			</g>
			<g>
				<g>
					<path class="st2" d="M27.1,0.8c14.4,0,26.1,11.8,26.1,26.2v0.5v1.1c0,15.8-18.4,36.7-24,42.7c-0.1,0.2-0.2,0.3-0.3,0.3
						c-0.1,0.1-0.7,0.2-1.6,0.2c-1.1,0-1.7-0.2-1.8-0.3l0,0C22.9,69.1,0.8,47.2,0.8,28.6c0-0.4,0-0.8,0-1.2c0-0.2,0-0.3,0-0.5h0.1
						l0-0.7c0.2-6.8,3-13.2,7.9-18C13.8,3.4,20.2,0.8,27.1,0.8 M27.1,0C12.5,0,0.6,11.7,0.2,26.2H0.1C0.1,27,0,27.8,0,28.6
						c0,19.9,24.7,43.2,25,43.5c0.3,0.3,1.3,0.4,2.3,0.4c1,0,1.9-0.1,2.2-0.4C30,71.5,54,47,54,28.6c0-0.4,0-0.7,0-1.1
						c0-0.2,0-0.3,0-0.5C54,12.1,41.9,0,27.1,0L27.1,0z"/>
				</g>
			</g>
		</g>
	</g>
</g>
<path class="st3" d="M28.6,22.3c-0.1,1-0.1,1.9-0.1,2.6s0,2.3,0,3.9c0,0.3,0,0.6,0,1.1c0,0.7,0,1,0,1.6c0,0.3,0,0.7,0.1,1.2
	c0,0.5-0.3,0.9-0.7,0.9c-0.4,0.1-0.7-0.3-0.7-0.4C27,33,27,32.7,27,32.2c0,0,0-0.2,0-1.4c0-0.4,0-0.2-0.1-1.6c0-0.6-0.1-1-0.1-1.3
	c0-0.4,0-0.7,0-0.8c-0.1-0.8-0.1-1.6-0.2-2.4c-0.1-1-0.2-2.1-0.3-3.2c-0.5,0-0.7,0.3-1,0.5c-0.4,0.3-0.8,0.6-1.2,0.8
	c-0.1,0.1-0.2,0.1-0.3,0.2c-3.2,2.8-4.6,4-5.2,4.5c-0.1,0.1-0.5,0.5-1.1,1c-0.9,0.8-0.8,0.7-1.1,1c-0.7,0.7-0.8,0.9-1.2,1.1
	c-0.2,0.1-0.9,0.5-1.3,0.2c-0.3-0.2-0.3-0.9,0.1-1.6c0.3-0.3,0.8-0.7,1.4-1.3c0.6-0.5,1-0.9,1.2-1c1.3-1.1,1.5-1.4,3-2.6
	c1-0.9,1.7-1.5,2.2-2c0.4-0.4,1.2-0.8,1.7-1.7c0.2-0.3,0.3-0.5,0.3-0.7c-0.1,0-0.2,0-0.3,0c-0.2,0-0.3,0-0.5,0c-1,0-1.9,0-2.5,0
	s-0.7,0-2.4-0.1c-0.6,0-1.3-0.1-1.9-0.1c-1.4,0-2.1,0-2.9-0.3c-0.3-0.1-0.7-0.4-0.7-0.7c0-0.4,0.6-0.6,0.6-0.6
	c0.3,0,0.7-0.1,1.1-0.1c0,0,1-0.1,1.9-0.1c1.2-0.1,2,0,2.9,0s2.2,0,3.9,0c-0.7-1.1-1.1-1.4-1.2-1.5c0,0,0,0-0.3-0.2
	c0,0-0.2-0.2-0.3-0.2c-0.9-0.7-2.6-2.4-2.6-2.4c-0.9-0.9-1.1-1-1.5-1.4c-0.2-0.1-0.4-0.4-0.9-0.9s-0.8-0.7-1-1
	c-0.1-0.1-0.2-0.2-0.2-0.2c-0.3-0.3-0.9-1-1.2-1.9c-0.1-0.4-0.2-0.8,0-1.1s0.7-0.2,0.8-0.2C15,7,15.2,7.2,15.4,7.4
	c0.6,0.6,0.8,1,1.2,1.4c0.6,0.7,0.9,0.6,1.8,1.5c0.5,0.4,0.7,0.7,1.1,1.1c1.3,1.4,1.5,1.3,3.2,3c1,0.9,1.5,1.4,2.5,2.3
	c0.2,0.2,0.4,0.3,0.8,0.6c0-0.4,0-0.6,0-0.9c-0.1-0.7,0-2.5-0.5-7c-0.1-0.7-0.1-1.4-0.1-2c-0.1-1.3-0.2-1.8,0.1-2.1s0.9-0.4,1.3-0.1
	c0.4,0.2,0.6,0.8,0.8,1.9c0.2,1.3,0.4,2.3,0.5,2.9c0.1,1.1,0.1,2.2,0.2,3.3c0.1,1,0.1,2.1,0.2,3.1c0.2-0.1,0.4-0.1,0.5-0.2
	c1.4-1.1,2.8-2.1,3.9-3.5c0.3-0.3,0.4-0.5,0.7-0.7c0.8-0.8,0.9-0.9,1.5-1.6c0.7-0.8,0.6-0.7,1.2-1.3c0.5-0.5,0.6-0.6,1.1-1.1
	c0.3-0.3,0.5-0.6,0.8-0.9c0.4-0.4,0.4-0.5,0.6-0.6c0.4-0.2,1-0.2,1.3,0.1C40.4,7,40,7.9,39.8,8.2c-0.3,0.5-0.5,0.6-1.4,1.6
	c0,0-0.4,0.4-1.1,1.2c-0.6,0.6-1,1.2-1.4,1.6c-0.2,0.2-0.4,0.4-0.7,0.7c-0.7,0.7-0.9,0.9-1.1,1.2c-0.6,0.6-1,1-1.2,1.2
	c-0.5,0.5-1.3,1.3-2.5,2.2c0.3,0,0.6,0,1.1,0c3.2,0,3.2,0.1,4.7,0.1c1.4,0,2.7,0,4.1,0c0.3,0,0.6,0,0.9,0.1c0.3,0,0.6,0.2,0.6,0.5
	s0,0.7-0.4,0.8c-0.3,0.1-0.6,0.2-0.9,0.2c-0.5,0.1-1.1,0.1-1.7,0.1c-1,0-1.9,0.1-2.9,0.3c-0.2,0-0.3,0-0.6,0c-0.4,0-1.9,0.1-4.5,0.1
	c-0.2,0-0.6,0-1,0c0.1,0.1,0.3,0.4,0.5,0.6c0.6,0.6,1.1,0.9,1.2,1c0.3,0.2,1.2,1.1,2.9,2.8c1.1,1.1,1.7,1.7,2.5,2.5
	c2.3,2.5,1.6,2.2,2.3,2.7c0.1,0.1,0.5,0.4,0.7,1c0,0.1,0.3,0.9-0.1,1.2c-0.3,0.3-0.9,0.1-0.9,0.1c-0.5-0.2-0.6-0.6-1.2-1.3
	c-0.2-0.2-0.1-0.1-0.9-1c-1.4-1.5-1.2-1.4-1.7-1.9c-0.7-0.7-0.8-0.6-1.9-1.5c-0.3-0.3-0.6-0.5-0.9-0.8c-0.6-0.7-1-1-1.1-1
	c-0.2-0.2-0.4-0.3-1.5-1.2C29.4,23,29.1,22.7,28.6,22.3z"/>
</svg>
