<?xml version="1.0" encoding="utf-8"?>
<!-- Generator: Adobe Illustrator 19.2.0, SVG Export Plug-In . SVG Version: 6.00 Build 0)  -->
<svg version="1.1" id="Layer_2" xmlns="http://www.w3.org/2000/svg" xmlns:xlink="http://www.w3.org/1999/xlink" x="0px" y="0px"
	 viewBox="0 0 114 92" style="enable-background:new 0 0 114 92;" xml:space="preserve">
<style type="text/css">
	.st0{opacity:0.8;fill:url(#SVGID_1_);}
	.st1{fill:#FFFFFF;}
	.st2{fill:none;stroke:#000000;stroke-miterlimit:10;}
	.st3{fill:#DD3131;}
</style>
<radialGradient id="SVGID_1_" cx="57.2066" cy="139.2116" r="11.7384" gradientTransform="matrix(1 0 0 0.1522 0 60.1967)" gradientUnits="userSpaceOnUse">
	<stop  offset="0" style="stop-color:#000000"/>
	<stop  offset="0.499" style="stop-color:#868686"/>
	<stop  offset="0.8443" style="stop-color:#DDDDDD"/>
	<stop  offset="1" style="stop-color:#FFFFFF"/>
</radialGradient>
<ellipse class="st0" cx="57.2" cy="81.4" rx="11.7" ry="1.8"/>
<g>
	<g>
		<g>
			<g>
				<path class="st1" d="M84,35.6c0-14.9-12.1-27-26.9-27c-14.6,0-26.5,11.7-26.9,26.2h-0.1c0,0.8-0.1,1.6-0.1,2.4
					c0,19.9,24.7,43.2,25,43.5c0.7,0.6,4,0.6,4.5,0S84,55.6,84,37.2c0-0.4,0-0.7,0-1.1C84,35.9,84,35.8,84,35.6z"/>
			</g>
			<g>
				<path class="st2" d="M84,35.6c0-14.9-12.1-27-26.9-27c-14.6,0-26.5,11.7-26.9,26.2h-0.1c0,0.8-0.1,1.6-0.1,2.4
					c0,19.9,24.7,43.2,25,43.5c0.7,0.6,4,0.6,4.5,0S84,55.6,84,37.2c0-0.4,0-0.7,0-1.1C84,35.9,84,35.8,84,35.6z"/>
			</g>
		</g>
	</g>
</g>
<g>
	<g>
		<g>
			<path class="st3" d="M47.9,40l-1,3h20.7l-1-3H47.9z M51.1,42.4h-3.4l0.7-1.9h4.7C52.5,41.2,51.8,41.8,51.1,42.4z"/>
			<path class="st3" d="M57.1,21.7c-4.6,0-8.3,3.5-8.3,7.9v9.7h16.6v-9.7c0-4.3-3.7-7.9-8.3-7.9H57.1z M63.9,29.8
				c0,0.4-0.3,0.7-0.7,0.7c-0.4,0-0.7-0.3-0.7-0.7c0-2.7-2.3-4.9-5.2-4.9h-0.1c-0.4,0-0.7-0.3-0.7-0.7c0-0.4,0.3-0.7,0.7-0.7h0.1
				C61,23.5,63.9,26.3,63.9,29.8z"/>
			<path class="st3" d="M47.6,26.4c0.1-0.7-0.3-1.4-1.1-1.5l-3.9-0.7c-0.7-0.1-1.4,0.3-1.6,1c0,0.2,0,0.3,0,0.4
				c0.1,0.5,0.5,1,1.1,1.1l3.9,0.7C46.7,27.5,47.4,27.1,47.6,26.4z"/>
			<path class="st3" d="M46.7,17.8l2.5,3c0.5,0.6,1.3,0.6,1.9,0.2c0.6-0.4,0.7-1.2,0.2-1.8l-2.5-3c-0.5-0.6-1.3-0.6-1.9-0.2
				c-0.4,0.3-0.6,0.8-0.5,1.2C46.4,17.4,46.5,17.6,46.7,17.8z"/>
			<path class="st3" d="M56.1,17.8c0.1,0.6,0.6,1.1,1.3,1.1c0.7,0,1.4-0.5,1.4-1.2l0-3.8c0-0.7-0.6-1.3-1.3-1.3
				c-0.7,0-1.4,0.5-1.4,1.2l0,3.8C56.1,17.7,56.1,17.8,56.1,17.8z"/>
			<path class="st3" d="M63.6,21.2c0.6,0.5,1.4,0.4,1.9-0.1l2.6-2.8c0.5-0.5,0.4-1.3-0.1-1.8c-0.6-0.5-1.4-0.4-1.9,0.1l-2.6,2.8
				c-0.3,0.3-0.4,0.7-0.3,1C63.2,20.7,63.4,21,63.6,21.2z"/>
			<path class="st3" d="M73.4,25.9c-0.1-0.7-0.8-1.2-1.5-1.1l-3.9,0.6c-0.7,0.1-1.2,0.8-1.1,1.5c0.1,0.7,0.8,1.2,1.5,1.1l3.9-0.6
				C73,27.2,73.5,26.6,73.4,25.9z"/>
		</g>
	</g>
</g>
</svg>
