<svg id="Layer_1" data-name="Layer 1" xmlns="http://www.w3.org/2000/svg" xmlns:xlink="http://www.w3.org/1999/xlink" viewBox="0 0 54.5 75.86"><defs><style>.cls-1{fill:url(#radial-gradient);}.cls-2{stroke:#454545;stroke-width:0.5px;fill:url(#linear-gradient);}.cls-3{fill:#308b60;}</style><radialGradient id="radial-gradient" cx="-98.11" cy="6.39" r="1.13" gradientTransform="translate(-56.84 -318.58) rotate(-90) scale(4 13.24)" gradientUnits="userSpaceOnUse"><stop offset="0" stop-color="#474747"/><stop offset="1" stop-color="#fff"/></radialGradient><linearGradient id="linear-gradient" x1="-71.15" y1="2.8" x2="-71.15" y2="1.8" gradientTransform="translate(3869.25 -128.38) scale(54 72)" gradientUnits="userSpaceOnUse"><stop offset="0" stop-color="#fff"/><stop offset="1" stop-color="#9ee9cc"/></linearGradient></defs><title>Development tap</title><g id="Page-1"><g id="Development-tap"><g id="list-icon-development"><ellipse id="Oval-3" class="cls-1" cx="27.75" cy="73.86" rx="12.5" ry="2"/><path id="Shape" class="cls-2" d="M0.25,27v2.38c0,19.72,24.65,42.93,25,43.12a4.12,4.12,0,0,0,2.3.5,3.73,3.73,0,0,0,2.2-.5c0.64-.59,24.5-24.89,24.5-43.14V27.78A27,27,0,1,0,.25,27Z" transform="translate(0 -0.14)"/></g><g id="shovel"><path id="Shape-2" class="cls-3" d="M23.32,36.35l3.35,3.35a0.21,0.21,0,0,1,0,.37L20.34,46.4a7.48,7.48,0,0,1-8.93,1.12,6.09,6.09,0,0,1-3-5.3,7.78,7.78,0,0,1,2.33-6c2-2,3.91-3.91,5.86-6,0.19-.19.28-0.19,0.56,0,1.12,1.21,2.33,2.33,3.44,3.53A17.87,17.87,0,0,0,23.32,36.35Z" transform="translate(0 -0.14)"/><path id="Shape-3" class="cls-3" d="M35.51,19.42a5.32,5.32,0,0,1-1.4-2.79,5,5,0,0,1,1.3-4.19c0.93-1,2-2,2.88-2.88,0.19-.19.28-0.09,0.37,0.09l3.16,3.16,5.86,5.86c0.19,0.19.19,0.28,0,.47l-2.6,2.6a5,5,0,0,1-7.07.18l-0.09-.09a0.35,0.35,0,0,1-.19-0.19Zm5.67,1.3a2.49,2.49,0,0,0,2-.65A11.15,11.15,0,0,1,44.25,19c0.19-.19.09-0.19,0-0.37l-5.49-5.49a0.21,0.21,0,0,0-.37,0L37.55,14a2.49,2.49,0,0,0-.2,3.52l0.2,0.2L39.88,20A1.78,1.78,0,0,0,41.18,20.72Z" transform="translate(0 -0.14)"/><path id="Shape-4" class="cls-3" d="M35.51,19.42l2.23,2.23a5.61,5.61,0,0,1-.74.74C32.44,27,27.78,31.42,23.25,36L23,36.28,20.72,34c4.83-4.72,9.53-9.47,14.41-14.12A1,1,0,0,1,35.51,19.42Z" transform="translate(0 -0.14)"/></g></g></g></svg>